<svg width="1442" height="899" viewBox="0 0 1442 899" fill="none" xmlns="http://www.w3.org/2000/svg">
<g clip-path="url(#clip0_103_71428)">
<rect width="1442" height="899" fill="url(#paint0_linear_103_71428)"/>
<mask id="mask0_103_71428" style="mask-type:alpha" maskUnits="userSpaceOnUse" x="1129" y="34" width="668" height="691">
<rect x="1129" y="34" width="668" height="691" fill="url(#paint1_linear_103_71428)"/>
</mask>
<g mask="url(#mask0_103_71428)">
<g opacity="0.25">
<circle cx="1161.23" cy="62.2344" r="2" fill="black"/>
<circle cx="1181.23" cy="62.2344" r="2" fill="black"/>
<circle cx="1201.23" cy="62.2344" r="2" fill="black"/>
<circle cx="1221.23" cy="62.2344" r="2" fill="black"/>
<circle cx="1241.23" cy="62.2344" r="2" fill="black"/>
<circle cx="1261.23" cy="62.2344" r="2" fill="black"/>
<circle cx="1281.23" cy="62.2344" r="2" fill="black"/>
<circle cx="1301.23" cy="62.2344" r="2" fill="black"/>
<circle cx="1161.23" cy="82.2344" r="2" fill="black"/>
<circle cx="1181.23" cy="82.2344" r="2" fill="black"/>
<circle cx="1201.23" cy="82.2344" r="2" fill="black"/>
<circle cx="1221.23" cy="82.2344" r="2" fill="black"/>
<circle cx="1241.23" cy="82.2344" r="2" fill="black"/>
<circle cx="1261.23" cy="82.2344" r="2" fill="black"/>
<circle cx="1281.23" cy="82.2344" r="2" fill="black"/>
<circle cx="1301.23" cy="82.2344" r="2" fill="black"/>
<circle cx="1161.23" cy="102.234" r="2" fill="black"/>
<circle cx="1181.23" cy="102.234" r="2" fill="black"/>
<circle cx="1201.23" cy="102.234" r="2" fill="black"/>
<circle cx="1221.23" cy="102.234" r="2" fill="black"/>
<circle cx="1241.23" cy="102.234" r="2" fill="black"/>
<circle cx="1261.23" cy="102.234" r="2" fill="black"/>
<circle cx="1281.23" cy="102.234" r="2" fill="black"/>
<circle cx="1301.23" cy="102.234" r="2" fill="black"/>
<circle cx="1161.23" cy="122.234" r="2" fill="black"/>
<circle cx="1181.23" cy="122.234" r="2" fill="black"/>
<circle cx="1201.23" cy="122.234" r="2" fill="black"/>
<circle cx="1221.23" cy="122.234" r="2" fill="black"/>
<circle cx="1241.23" cy="122.234" r="2" fill="black"/>
<circle cx="1261.23" cy="122.234" r="2" fill="black"/>
<circle cx="1281.23" cy="122.234" r="2" fill="black"/>
<circle cx="1301.23" cy="122.234" r="2" fill="black"/>
<circle cx="1161.23" cy="142.234" r="2" fill="black"/>
<circle cx="1181.23" cy="142.234" r="2" fill="black"/>
<circle cx="1201.23" cy="142.234" r="2" fill="black"/>
<circle cx="1221.23" cy="142.234" r="2" fill="black"/>
<circle cx="1241.23" cy="142.234" r="2" fill="black"/>
<circle cx="1261.23" cy="142.234" r="2" fill="black"/>
<circle cx="1281.23" cy="142.234" r="2" fill="black"/>
<circle cx="1301.23" cy="142.234" r="2" fill="black"/>
<circle cx="1161.23" cy="162.234" r="2" fill="black"/>
<circle cx="1181.23" cy="162.234" r="2" fill="black"/>
<circle cx="1201.23" cy="162.234" r="2" fill="black"/>
<circle cx="1221.23" cy="162.234" r="2" fill="black"/>
<circle cx="1241.23" cy="162.234" r="2" fill="black"/>
<circle cx="1261.23" cy="162.234" r="2" fill="black"/>
<circle cx="1281.23" cy="162.234" r="2" fill="black"/>
<circle cx="1301.23" cy="162.234" r="2" fill="black"/>
<circle cx="1161.23" cy="182.234" r="2" fill="black"/>
<circle cx="1181.23" cy="182.234" r="2" fill="black"/>
<circle cx="1201.23" cy="182.234" r="2" fill="black"/>
<circle cx="1221.23" cy="182.234" r="2" fill="black"/>
<circle cx="1241.23" cy="182.234" r="2" fill="black"/>
<circle cx="1261.23" cy="182.234" r="2" fill="black"/>
<circle cx="1281.23" cy="182.234" r="2" fill="black"/>
<circle cx="1301.23" cy="182.234" r="2" fill="black"/>
<circle cx="1161.23" cy="202.234" r="2" fill="black"/>
<circle cx="1181.23" cy="202.234" r="2" fill="black"/>
<circle cx="1201.23" cy="202.234" r="2" fill="black"/>
<circle cx="1221.23" cy="202.234" r="2" fill="black"/>
<circle cx="1241.23" cy="202.234" r="2" fill="black"/>
<circle cx="1261.23" cy="202.234" r="2" fill="black"/>
<circle cx="1281.23" cy="202.234" r="2" fill="black"/>
<circle cx="1301.23" cy="202.234" r="2" fill="black"/>
<circle cx="1321.23" cy="62.2344" r="2" fill="black"/>
<circle cx="1341.23" cy="62.2344" r="2" fill="black"/>
<circle cx="1361.23" cy="62.2344" r="2" fill="black"/>
<circle cx="1381.23" cy="62.2344" r="2" fill="black"/>
<circle cx="1401.23" cy="62.2344" r="2" fill="black"/>
<circle cx="1421.23" cy="62.2344" r="2" fill="black"/>
<circle cx="1441.23" cy="62.2344" r="2" fill="black"/>
<circle cx="1321.23" cy="82.2344" r="2" fill="black"/>
<circle cx="1341.23" cy="82.2344" r="2" fill="black"/>
<circle cx="1361.23" cy="82.2344" r="2" fill="black"/>
<circle cx="1381.23" cy="82.2344" r="2" fill="black"/>
<circle cx="1401.23" cy="82.2344" r="2" fill="black"/>
<circle cx="1421.23" cy="82.2344" r="2" fill="black"/>
<circle cx="1441.23" cy="82.2344" r="2" fill="black"/>
<circle cx="1321.23" cy="102.234" r="2" fill="black"/>
<circle cx="1341.23" cy="102.234" r="2" fill="black"/>
<circle cx="1361.23" cy="102.234" r="2" fill="black"/>
<circle cx="1381.23" cy="102.234" r="2" fill="black"/>
<circle cx="1401.23" cy="102.234" r="2" fill="black"/>
<circle cx="1421.23" cy="102.234" r="2" fill="black"/>
<circle cx="1441.23" cy="102.234" r="2" fill="black"/>
<circle cx="1321.23" cy="122.234" r="2" fill="black"/>
<circle cx="1341.23" cy="122.234" r="2" fill="black"/>
<circle cx="1361.23" cy="122.234" r="2" fill="black"/>
<circle cx="1381.23" cy="122.234" r="2" fill="black"/>
<circle cx="1401.23" cy="122.234" r="2" fill="black"/>
<circle cx="1421.23" cy="122.234" r="2" fill="black"/>
<circle cx="1441.23" cy="122.234" r="2" fill="black"/>
<circle cx="1321.23" cy="142.234" r="2" fill="black"/>
<circle cx="1341.23" cy="142.234" r="2" fill="black"/>
<circle cx="1361.23" cy="142.234" r="2" fill="black"/>
<circle cx="1381.23" cy="142.234" r="2" fill="black"/>
<circle cx="1401.23" cy="142.234" r="2" fill="black"/>
<circle cx="1421.23" cy="142.234" r="2" fill="black"/>
<circle cx="1441.23" cy="142.234" r="2" fill="black"/>
<circle cx="1321.23" cy="162.234" r="2" fill="black"/>
<circle cx="1341.23" cy="162.234" r="2" fill="black"/>
<circle cx="1361.23" cy="162.234" r="2" fill="black"/>
<circle cx="1381.23" cy="162.234" r="2" fill="black"/>
<circle cx="1401.23" cy="162.234" r="2" fill="black"/>
<circle cx="1421.23" cy="162.234" r="2" fill="black"/>
<circle cx="1441.23" cy="162.234" r="2" fill="black"/>
<circle cx="1321.23" cy="182.234" r="2" fill="black"/>
<circle cx="1341.23" cy="182.234" r="2" fill="black"/>
<circle cx="1361.23" cy="182.234" r="2" fill="black"/>
<circle cx="1381.23" cy="182.234" r="2" fill="black"/>
<circle cx="1401.23" cy="182.234" r="2" fill="black"/>
<circle cx="1421.23" cy="182.234" r="2" fill="black"/>
<circle cx="1441.23" cy="182.234" r="2" fill="black"/>
<circle cx="1321.23" cy="202.234" r="2" fill="black"/>
<circle cx="1341.23" cy="202.234" r="2" fill="black"/>
<circle cx="1361.23" cy="202.234" r="2" fill="black"/>
<circle cx="1381.23" cy="202.234" r="2" fill="black"/>
<circle cx="1401.23" cy="202.234" r="2" fill="black"/>
<circle cx="1421.23" cy="202.234" r="2" fill="black"/>
<circle cx="1441.23" cy="202.234" r="2" fill="black"/>
<circle cx="1161.23" cy="222.234" r="2" fill="black"/>
<circle cx="1181.23" cy="222.234" r="2" fill="black"/>
<circle cx="1201.23" cy="222.234" r="2" fill="black"/>
<circle cx="1221.23" cy="222.234" r="2" fill="black"/>
<circle cx="1241.23" cy="222.234" r="2" fill="black"/>
<circle cx="1261.23" cy="222.234" r="2" fill="black"/>
<circle cx="1281.23" cy="222.234" r="2" fill="black"/>
<circle cx="1301.23" cy="222.234" r="2" fill="black"/>
<circle cx="1161.23" cy="242.234" r="2" fill="black"/>
<circle cx="1181.23" cy="242.234" r="2" fill="black"/>
<circle cx="1201.23" cy="242.234" r="2" fill="black"/>
<circle cx="1221.23" cy="242.234" r="2" fill="black"/>
<circle cx="1241.23" cy="242.234" r="2" fill="black"/>
<circle cx="1261.23" cy="242.234" r="2" fill="black"/>
<circle cx="1281.23" cy="242.234" r="2" fill="black"/>
<circle cx="1301.23" cy="242.234" r="2" fill="black"/>
<circle cx="1161.23" cy="262.234" r="2" fill="black"/>
<circle cx="1181.23" cy="262.234" r="2" fill="black"/>
<circle cx="1201.23" cy="262.234" r="2" fill="black"/>
<circle cx="1221.23" cy="262.234" r="2" fill="black"/>
<circle cx="1241.23" cy="262.234" r="2" fill="black"/>
<circle cx="1261.23" cy="262.234" r="2" fill="black"/>
<circle cx="1281.23" cy="262.234" r="2" fill="black"/>
<circle cx="1301.23" cy="262.234" r="2" fill="black"/>
<circle cx="1161.23" cy="282.234" r="2" fill="black"/>
<circle cx="1181.23" cy="282.234" r="2" fill="black"/>
<circle cx="1201.23" cy="282.234" r="2" fill="black"/>
<circle cx="1221.23" cy="282.234" r="2" fill="black"/>
<circle cx="1241.23" cy="282.234" r="2" fill="black"/>
<circle cx="1261.23" cy="282.234" r="2" fill="black"/>
<circle cx="1281.23" cy="282.234" r="2" fill="black"/>
<circle cx="1301.23" cy="282.234" r="2" fill="black"/>
<circle cx="1161.23" cy="302.234" r="2" fill="black"/>
<circle cx="1181.23" cy="302.234" r="2" fill="black"/>
<circle cx="1201.23" cy="302.234" r="2" fill="black"/>
<circle cx="1221.23" cy="302.234" r="2" fill="black"/>
<circle cx="1241.23" cy="302.234" r="2" fill="black"/>
<circle cx="1261.23" cy="302.234" r="2" fill="black"/>
<circle cx="1281.23" cy="302.234" r="2" fill="black"/>
<circle cx="1301.23" cy="302.234" r="2" fill="black"/>
<circle cx="1161.23" cy="322.234" r="2" fill="black"/>
<circle cx="1181.23" cy="322.234" r="2" fill="black"/>
<circle cx="1201.23" cy="322.234" r="2" fill="black"/>
<circle cx="1221.23" cy="322.234" r="2" fill="black"/>
<circle cx="1241.23" cy="322.234" r="2" fill="black"/>
<circle cx="1261.23" cy="322.234" r="2" fill="black"/>
<circle cx="1281.23" cy="322.234" r="2" fill="black"/>
<circle cx="1301.23" cy="322.234" r="2" fill="black"/>
<circle cx="1161.23" cy="342.234" r="2" fill="black"/>
<circle cx="1181.23" cy="342.234" r="2" fill="black"/>
<circle cx="1201.23" cy="342.234" r="2" fill="black"/>
<circle cx="1221.23" cy="342.234" r="2" fill="black"/>
<circle cx="1241.23" cy="342.234" r="2" fill="black"/>
<circle cx="1261.23" cy="342.234" r="2" fill="black"/>
<circle cx="1281.23" cy="342.234" r="2" fill="black"/>
<circle cx="1301.23" cy="342.234" r="2" fill="black"/>
<circle cx="1161.23" cy="362.234" r="2" fill="black"/>
<circle cx="1181.23" cy="362.234" r="2" fill="black"/>
<circle cx="1201.23" cy="362.234" r="2" fill="black"/>
<circle cx="1221.23" cy="362.234" r="2" fill="black"/>
<circle cx="1241.23" cy="362.234" r="2" fill="black"/>
<circle cx="1261.23" cy="362.234" r="2" fill="black"/>
<circle cx="1281.23" cy="362.234" r="2" fill="black"/>
<circle cx="1301.23" cy="362.234" r="2" fill="black"/>
<circle cx="1321.23" cy="222.234" r="2" fill="black"/>
<circle cx="1341.23" cy="222.234" r="2" fill="black"/>
<circle cx="1361.23" cy="222.234" r="2" fill="black"/>
<circle cx="1381.23" cy="222.234" r="2" fill="black"/>
<circle cx="1401.23" cy="222.234" r="2" fill="black"/>
<circle cx="1421.23" cy="222.234" r="2" fill="black"/>
<circle cx="1441.23" cy="222.234" r="2" fill="black"/>
<circle cx="1321.23" cy="242.234" r="2" fill="black"/>
<circle cx="1341.23" cy="242.234" r="2" fill="black"/>
<circle cx="1361.23" cy="242.234" r="2" fill="black"/>
<circle cx="1381.23" cy="242.234" r="2" fill="black"/>
<circle cx="1401.23" cy="242.234" r="2" fill="black"/>
<circle cx="1421.23" cy="242.234" r="2" fill="black"/>
<circle cx="1441.23" cy="242.234" r="2" fill="black"/>
<circle cx="1321.23" cy="262.234" r="2" fill="black"/>
<circle cx="1341.23" cy="262.234" r="2" fill="black"/>
<circle cx="1361.23" cy="262.234" r="2" fill="black"/>
<circle cx="1381.23" cy="262.234" r="2" fill="black"/>
<circle cx="1401.23" cy="262.234" r="2" fill="black"/>
<circle cx="1421.23" cy="262.234" r="2" fill="black"/>
<circle cx="1441.23" cy="262.234" r="2" fill="black"/>
<circle cx="1321.23" cy="282.234" r="2" fill="black"/>
<circle cx="1341.23" cy="282.234" r="2" fill="black"/>
<circle cx="1361.23" cy="282.234" r="2" fill="black"/>
<circle cx="1381.23" cy="282.234" r="2" fill="black"/>
<circle cx="1401.23" cy="282.234" r="2" fill="black"/>
<circle cx="1421.23" cy="282.234" r="2" fill="black"/>
<circle cx="1441.23" cy="282.234" r="2" fill="black"/>
<circle cx="1321.23" cy="302.234" r="2" fill="black"/>
<circle cx="1341.23" cy="302.234" r="2" fill="black"/>
<circle cx="1361.23" cy="302.234" r="2" fill="black"/>
<circle cx="1381.23" cy="302.234" r="2" fill="black"/>
<circle cx="1401.23" cy="302.234" r="2" fill="black"/>
<circle cx="1421.23" cy="302.234" r="2" fill="black"/>
<circle cx="1441.23" cy="302.234" r="2" fill="black"/>
<circle cx="1321.23" cy="322.234" r="2" fill="black"/>
<circle cx="1341.23" cy="322.234" r="2" fill="black"/>
<circle cx="1361.23" cy="322.234" r="2" fill="black"/>
<circle cx="1381.23" cy="322.234" r="2" fill="black"/>
<circle cx="1401.23" cy="322.234" r="2" fill="black"/>
<circle cx="1421.23" cy="322.234" r="2" fill="black"/>
<circle cx="1441.23" cy="322.234" r="2" fill="black"/>
<circle cx="1321.23" cy="342.234" r="2" fill="black"/>
<circle cx="1341.23" cy="342.234" r="2" fill="black"/>
<circle cx="1361.23" cy="342.234" r="2" fill="black"/>
<circle cx="1381.23" cy="342.234" r="2" fill="black"/>
<circle cx="1401.23" cy="342.234" r="2" fill="black"/>
<circle cx="1421.23" cy="342.234" r="2" fill="black"/>
<circle cx="1441.23" cy="342.234" r="2" fill="black"/>
<circle cx="1321.23" cy="362.234" r="2" fill="black"/>
<circle cx="1341.23" cy="362.234" r="2" fill="black"/>
<circle cx="1361.23" cy="362.234" r="2" fill="black"/>
<circle cx="1381.23" cy="362.234" r="2" fill="black"/>
<circle cx="1401.23" cy="362.234" r="2" fill="black"/>
<circle cx="1421.23" cy="362.234" r="2" fill="black"/>
<circle cx="1441.23" cy="362.234" r="2" fill="black"/>
<circle cx="1161.23" cy="382.234" r="2" fill="black"/>
<circle cx="1181.23" cy="382.234" r="2" fill="black"/>
<circle cx="1201.23" cy="382.234" r="2" fill="black"/>
<circle cx="1221.23" cy="382.234" r="2" fill="black"/>
<circle cx="1241.23" cy="382.234" r="2" fill="black"/>
<circle cx="1261.23" cy="382.234" r="2" fill="black"/>
<circle cx="1281.23" cy="382.234" r="2" fill="black"/>
<circle cx="1301.23" cy="382.234" r="2" fill="black"/>
<circle cx="1161.23" cy="402.234" r="2" fill="black"/>
<circle cx="1181.23" cy="402.234" r="2" fill="black"/>
<circle cx="1201.23" cy="402.234" r="2" fill="black"/>
<circle cx="1221.23" cy="402.234" r="2" fill="black"/>
<circle cx="1241.23" cy="402.234" r="2" fill="black"/>
<circle cx="1261.23" cy="402.234" r="2" fill="black"/>
<circle cx="1281.23" cy="402.234" r="2" fill="black"/>
<circle cx="1301.23" cy="402.234" r="2" fill="black"/>
<circle cx="1161.23" cy="422.234" r="2" fill="black"/>
<circle cx="1181.23" cy="422.234" r="2" fill="black"/>
<circle cx="1201.23" cy="422.234" r="2" fill="black"/>
<circle cx="1221.23" cy="422.234" r="2" fill="black"/>
<circle cx="1241.23" cy="422.234" r="2" fill="black"/>
<circle cx="1261.23" cy="422.234" r="2" fill="black"/>
<circle cx="1281.23" cy="422.234" r="2" fill="black"/>
<circle cx="1301.23" cy="422.234" r="2" fill="black"/>
<circle cx="1161.23" cy="442.234" r="2" fill="black"/>
<circle cx="1181.23" cy="442.234" r="2" fill="black"/>
<circle cx="1201.23" cy="442.234" r="2" fill="black"/>
<circle cx="1221.23" cy="442.234" r="2" fill="black"/>
<circle cx="1241.23" cy="442.234" r="2" fill="black"/>
<circle cx="1261.23" cy="442.234" r="2" fill="black"/>
<circle cx="1281.23" cy="442.234" r="2" fill="black"/>
<circle cx="1301.23" cy="442.234" r="2" fill="black"/>
<circle cx="1161.23" cy="462.234" r="2" fill="black"/>
<circle cx="1181.23" cy="462.234" r="2" fill="black"/>
<circle cx="1201.23" cy="462.234" r="2" fill="black"/>
<circle cx="1221.23" cy="462.234" r="2" fill="black"/>
<circle cx="1241.23" cy="462.234" r="2" fill="black"/>
<circle cx="1261.23" cy="462.234" r="2" fill="black"/>
<circle cx="1281.23" cy="462.234" r="2" fill="black"/>
<circle cx="1301.23" cy="462.234" r="2" fill="black"/>
<circle cx="1161.23" cy="482.234" r="2" fill="black"/>
<circle cx="1181.23" cy="482.234" r="2" fill="black"/>
<circle cx="1201.23" cy="482.234" r="2" fill="black"/>
<circle cx="1221.23" cy="482.234" r="2" fill="black"/>
<circle cx="1241.23" cy="482.234" r="2" fill="black"/>
<circle cx="1261.23" cy="482.234" r="2" fill="black"/>
<circle cx="1281.23" cy="482.234" r="2" fill="black"/>
<circle cx="1301.23" cy="482.234" r="2" fill="black"/>
<circle cx="1161.23" cy="502.234" r="2" fill="black"/>
<circle cx="1181.23" cy="502.234" r="2" fill="black"/>
<circle cx="1201.23" cy="502.234" r="2" fill="black"/>
<circle cx="1221.23" cy="502.234" r="2" fill="black"/>
<circle cx="1241.23" cy="502.234" r="2" fill="black"/>
<circle cx="1261.23" cy="502.234" r="2" fill="black"/>
<circle cx="1281.23" cy="502.234" r="2" fill="black"/>
<circle cx="1301.23" cy="502.234" r="2" fill="black"/>
<circle cx="1161.23" cy="522.234" r="2" fill="black"/>
<circle cx="1181.23" cy="522.234" r="2" fill="black"/>
<circle cx="1201.23" cy="522.234" r="2" fill="black"/>
<circle cx="1221.23" cy="522.234" r="2" fill="black"/>
<circle cx="1241.23" cy="522.234" r="2" fill="black"/>
<circle cx="1261.23" cy="522.234" r="2" fill="black"/>
<circle cx="1281.23" cy="522.234" r="2" fill="black"/>
<circle cx="1301.23" cy="522.234" r="2" fill="black"/>
<circle cx="1321.23" cy="382.234" r="2" fill="black"/>
<circle cx="1341.23" cy="382.234" r="2" fill="black"/>
<circle cx="1361.23" cy="382.234" r="2" fill="black"/>
<circle cx="1381.23" cy="382.234" r="2" fill="black"/>
<circle cx="1401.23" cy="382.234" r="2" fill="black"/>
<circle cx="1421.23" cy="382.234" r="2" fill="black"/>
<circle cx="1441.23" cy="382.234" r="2" fill="black"/>
<circle cx="1321.23" cy="402.234" r="2" fill="black"/>
<circle cx="1341.23" cy="402.234" r="2" fill="black"/>
<circle cx="1361.23" cy="402.234" r="2" fill="black"/>
<circle cx="1381.23" cy="402.234" r="2" fill="black"/>
<circle cx="1401.23" cy="402.234" r="2" fill="black"/>
<circle cx="1421.23" cy="402.234" r="2" fill="black"/>
<circle cx="1441.23" cy="402.234" r="2" fill="black"/>
<circle cx="1321.23" cy="422.234" r="2" fill="black"/>
<circle cx="1341.23" cy="422.234" r="2" fill="black"/>
<circle cx="1361.23" cy="422.234" r="2" fill="black"/>
<circle cx="1381.23" cy="422.234" r="2" fill="black"/>
<circle cx="1401.23" cy="422.234" r="2" fill="black"/>
<circle cx="1421.23" cy="422.234" r="2" fill="black"/>
<circle cx="1441.23" cy="422.234" r="2" fill="black"/>
<circle cx="1321.23" cy="442.234" r="2" fill="black"/>
<circle cx="1341.23" cy="442.234" r="2" fill="black"/>
<circle cx="1361.23" cy="442.234" r="2" fill="black"/>
<circle cx="1381.23" cy="442.234" r="2" fill="black"/>
<circle cx="1401.23" cy="442.234" r="2" fill="black"/>
<circle cx="1421.23" cy="442.234" r="2" fill="black"/>
<circle cx="1441.23" cy="442.234" r="2" fill="black"/>
<circle cx="1321.23" cy="462.234" r="2" fill="black"/>
<circle cx="1341.23" cy="462.234" r="2" fill="black"/>
<circle cx="1361.23" cy="462.234" r="2" fill="black"/>
<circle cx="1381.23" cy="462.234" r="2" fill="black"/>
<circle cx="1401.23" cy="462.234" r="2" fill="black"/>
<circle cx="1421.23" cy="462.234" r="2" fill="black"/>
<circle cx="1441.23" cy="462.234" r="2" fill="black"/>
<circle cx="1321.23" cy="482.234" r="2" fill="black"/>
<circle cx="1341.23" cy="482.234" r="2" fill="black"/>
<circle cx="1361.23" cy="482.234" r="2" fill="black"/>
<circle cx="1381.23" cy="482.234" r="2" fill="black"/>
<circle cx="1401.23" cy="482.234" r="2" fill="black"/>
<circle cx="1421.23" cy="482.234" r="2" fill="black"/>
<circle cx="1441.23" cy="482.234" r="2" fill="black"/>
<circle cx="1321.23" cy="502.234" r="2" fill="black"/>
<circle cx="1341.23" cy="502.234" r="2" fill="black"/>
<circle cx="1361.23" cy="502.234" r="2" fill="black"/>
<circle cx="1381.23" cy="502.234" r="2" fill="black"/>
<circle cx="1401.23" cy="502.234" r="2" fill="black"/>
<circle cx="1421.23" cy="502.234" r="2" fill="black"/>
<circle cx="1441.23" cy="502.234" r="2" fill="black"/>
<circle cx="1321.23" cy="522.234" r="2" fill="black"/>
<circle cx="1341.23" cy="522.234" r="2" fill="black"/>
<circle cx="1361.23" cy="522.234" r="2" fill="black"/>
<circle cx="1381.23" cy="522.234" r="2" fill="black"/>
<circle cx="1401.23" cy="522.234" r="2" fill="black"/>
<circle cx="1421.23" cy="522.234" r="2" fill="black"/>
<circle cx="1441.23" cy="522.234" r="2" fill="black"/>
<circle cx="1161.23" cy="542.234" r="2" fill="black"/>
<circle cx="1181.23" cy="542.234" r="2" fill="black"/>
<circle cx="1201.23" cy="542.234" r="2" fill="black"/>
<circle cx="1221.23" cy="542.234" r="2" fill="black"/>
<circle cx="1241.23" cy="542.234" r="2" fill="black"/>
<circle cx="1261.23" cy="542.234" r="2" fill="black"/>
<circle cx="1281.23" cy="542.234" r="2" fill="black"/>
<circle cx="1301.23" cy="542.234" r="2" fill="black"/>
<circle cx="1161.23" cy="562.234" r="2" fill="black"/>
<circle cx="1181.23" cy="562.234" r="2" fill="black"/>
<circle cx="1201.23" cy="562.234" r="2" fill="black"/>
<circle cx="1221.23" cy="562.234" r="2" fill="black"/>
<circle cx="1241.23" cy="562.234" r="2" fill="black"/>
<circle cx="1261.23" cy="562.234" r="2" fill="black"/>
<circle cx="1281.23" cy="562.234" r="2" fill="black"/>
<circle cx="1301.23" cy="562.234" r="2" fill="black"/>
<circle cx="1161.23" cy="582.234" r="2" fill="black"/>
<circle cx="1181.23" cy="582.234" r="2" fill="black"/>
<circle cx="1201.23" cy="582.234" r="2" fill="black"/>
<circle cx="1221.23" cy="582.234" r="2" fill="black"/>
<circle cx="1241.23" cy="582.234" r="2" fill="black"/>
<circle cx="1261.23" cy="582.234" r="2" fill="black"/>
<circle cx="1281.23" cy="582.234" r="2" fill="black"/>
<circle cx="1301.23" cy="582.234" r="2" fill="black"/>
<circle cx="1161.23" cy="602.234" r="2" fill="black"/>
<circle cx="1181.23" cy="602.234" r="2" fill="black"/>
<circle cx="1201.23" cy="602.234" r="2" fill="black"/>
<circle cx="1221.23" cy="602.234" r="2" fill="black"/>
<circle cx="1241.23" cy="602.234" r="2" fill="black"/>
<circle cx="1261.23" cy="602.234" r="2" fill="black"/>
<circle cx="1281.23" cy="602.234" r="2" fill="black"/>
<circle cx="1301.23" cy="602.234" r="2" fill="black"/>
<circle cx="1161.23" cy="622.234" r="2" fill="black"/>
<circle cx="1181.23" cy="622.234" r="2" fill="black"/>
<circle cx="1201.23" cy="622.234" r="2" fill="black"/>
<circle cx="1221.23" cy="622.234" r="2" fill="black"/>
<circle cx="1241.23" cy="622.234" r="2" fill="black"/>
<circle cx="1261.23" cy="622.234" r="2" fill="black"/>
<circle cx="1281.23" cy="622.234" r="2" fill="black"/>
<circle cx="1301.23" cy="622.234" r="2" fill="black"/>
<circle cx="1161.23" cy="642.234" r="2" fill="black"/>
<circle cx="1181.23" cy="642.234" r="2" fill="black"/>
<circle cx="1201.23" cy="642.234" r="2" fill="black"/>
<circle cx="1221.23" cy="642.234" r="2" fill="black"/>
<circle cx="1241.23" cy="642.234" r="2" fill="black"/>
<circle cx="1261.23" cy="642.234" r="2" fill="black"/>
<circle cx="1281.23" cy="642.234" r="2" fill="black"/>
<circle cx="1301.23" cy="642.234" r="2" fill="black"/>
<circle cx="1161.23" cy="662.234" r="2" fill="black"/>
<circle cx="1181.23" cy="662.234" r="2" fill="black"/>
<circle cx="1201.23" cy="662.234" r="2" fill="black"/>
<circle cx="1221.23" cy="662.234" r="2" fill="black"/>
<circle cx="1241.23" cy="662.234" r="2" fill="black"/>
<circle cx="1261.23" cy="662.234" r="2" fill="black"/>
<circle cx="1281.23" cy="662.234" r="2" fill="black"/>
<circle cx="1301.23" cy="662.234" r="2" fill="black"/>
<circle cx="1161.23" cy="682.234" r="2" fill="black"/>
<circle cx="1181.23" cy="682.234" r="2" fill="black"/>
<circle cx="1201.23" cy="682.234" r="2" fill="black"/>
<circle cx="1221.23" cy="682.234" r="2" fill="black"/>
<circle cx="1241.23" cy="682.234" r="2" fill="black"/>
<circle cx="1261.23" cy="682.234" r="2" fill="black"/>
<circle cx="1281.23" cy="682.234" r="2" fill="black"/>
<circle cx="1301.23" cy="682.234" r="2" fill="black"/>
<circle cx="1321.23" cy="542.234" r="2" fill="black"/>
<circle cx="1341.23" cy="542.234" r="2" fill="black"/>
<circle cx="1361.23" cy="542.234" r="2" fill="black"/>
<circle cx="1381.23" cy="542.234" r="2" fill="black"/>
<circle cx="1401.23" cy="542.234" r="2" fill="black"/>
<circle cx="1421.23" cy="542.234" r="2" fill="black"/>
<circle cx="1441.23" cy="542.234" r="2" fill="black"/>
<circle cx="1321.23" cy="562.234" r="2" fill="black"/>
<circle cx="1341.23" cy="562.234" r="2" fill="black"/>
<circle cx="1361.23" cy="562.234" r="2" fill="black"/>
<circle cx="1381.23" cy="562.234" r="2" fill="black"/>
<circle cx="1401.23" cy="562.234" r="2" fill="black"/>
<circle cx="1421.23" cy="562.234" r="2" fill="black"/>
<circle cx="1441.23" cy="562.234" r="2" fill="black"/>
<circle cx="1321.23" cy="582.234" r="2" fill="black"/>
<circle cx="1341.23" cy="582.234" r="2" fill="black"/>
<circle cx="1361.23" cy="582.234" r="2" fill="black"/>
<circle cx="1381.23" cy="582.234" r="2" fill="black"/>
<circle cx="1401.23" cy="582.234" r="2" fill="black"/>
<circle cx="1421.23" cy="582.234" r="2" fill="black"/>
<circle cx="1441.23" cy="582.234" r="2" fill="black"/>
<circle cx="1321.23" cy="602.234" r="2" fill="black"/>
<circle cx="1341.23" cy="602.234" r="2" fill="black"/>
<circle cx="1361.23" cy="602.234" r="2" fill="black"/>
<circle cx="1381.23" cy="602.234" r="2" fill="black"/>
<circle cx="1401.23" cy="602.234" r="2" fill="black"/>
<circle cx="1421.23" cy="602.234" r="2" fill="black"/>
<circle cx="1441.23" cy="602.234" r="2" fill="black"/>
<circle cx="1321.23" cy="622.234" r="2" fill="black"/>
<circle cx="1341.23" cy="622.234" r="2" fill="black"/>
<circle cx="1361.23" cy="622.234" r="2" fill="black"/>
<circle cx="1381.23" cy="622.234" r="2" fill="black"/>
<circle cx="1401.23" cy="622.234" r="2" fill="black"/>
<circle cx="1421.23" cy="622.234" r="2" fill="black"/>
<circle cx="1441.23" cy="622.234" r="2" fill="black"/>
<circle cx="1321.23" cy="642.234" r="2" fill="black"/>
<circle cx="1341.23" cy="642.234" r="2" fill="black"/>
<circle cx="1361.23" cy="642.234" r="2" fill="black"/>
<circle cx="1381.23" cy="642.234" r="2" fill="black"/>
<circle cx="1401.23" cy="642.234" r="2" fill="black"/>
<circle cx="1421.23" cy="642.234" r="2" fill="black"/>
<circle cx="1441.23" cy="642.234" r="2" fill="black"/>
<circle cx="1321.23" cy="662.234" r="2" fill="black"/>
<circle cx="1341.23" cy="662.234" r="2" fill="black"/>
<circle cx="1361.23" cy="662.234" r="2" fill="black"/>
<circle cx="1381.23" cy="662.234" r="2" fill="black"/>
<circle cx="1401.23" cy="662.234" r="2" fill="black"/>
<circle cx="1421.23" cy="662.234" r="2" fill="black"/>
<circle cx="1441.23" cy="662.234" r="2" fill="black"/>
<circle cx="1321.23" cy="682.234" r="2" fill="black"/>
<circle cx="1341.23" cy="682.234" r="2" fill="black"/>
<circle cx="1361.23" cy="682.234" r="2" fill="black"/>
<circle cx="1381.23" cy="682.234" r="2" fill="black"/>
<circle cx="1401.23" cy="682.234" r="2" fill="black"/>
<circle cx="1421.23" cy="682.234" r="2" fill="black"/>
<circle cx="1441.23" cy="682.234" r="2" fill="black"/>
</g>
</g>
<mask id="mask1_103_71428" style="mask-type:alpha" maskUnits="userSpaceOnUse" x="-398" y="606" width="668" height="691">
<rect x="-398" y="606" width="668" height="691" fill="url(#paint2_linear_103_71428)"/>
</mask>
<g mask="url(#mask1_103_71428)">
<g opacity="0.25">
<circle cx="2.23438" cy="634.234" r="2" fill="black"/>
<circle cx="22.2344" cy="634.234" r="2" fill="black"/>
<circle cx="42.2344" cy="634.234" r="2" fill="black"/>
<circle cx="62.2344" cy="634.234" r="2" fill="black"/>
<circle cx="82.2344" cy="634.234" r="2" fill="black"/>
<circle cx="102.234" cy="634.234" r="2" fill="black"/>
<circle cx="2.23438" cy="654.234" r="2" fill="black"/>
<circle cx="22.2344" cy="654.234" r="2" fill="black"/>
<circle cx="42.2344" cy="654.234" r="2" fill="black"/>
<circle cx="62.2344" cy="654.234" r="2" fill="black"/>
<circle cx="82.2344" cy="654.234" r="2" fill="black"/>
<circle cx="102.234" cy="654.234" r="2" fill="black"/>
<circle cx="2.23438" cy="674.234" r="2" fill="black"/>
<circle cx="22.2344" cy="674.234" r="2" fill="black"/>
<circle cx="42.2344" cy="674.234" r="2" fill="black"/>
<circle cx="62.2344" cy="674.234" r="2" fill="black"/>
<circle cx="82.2344" cy="674.234" r="2" fill="black"/>
<circle cx="102.234" cy="674.234" r="2" fill="black"/>
<circle cx="2.23438" cy="694.234" r="2" fill="black"/>
<circle cx="22.2344" cy="694.234" r="2" fill="black"/>
<circle cx="42.2344" cy="694.234" r="2" fill="black"/>
<circle cx="62.2344" cy="694.234" r="2" fill="black"/>
<circle cx="82.2344" cy="694.234" r="2" fill="black"/>
<circle cx="102.234" cy="694.234" r="2" fill="black"/>
<circle cx="2.23438" cy="714.234" r="2" fill="black"/>
<circle cx="22.2344" cy="714.234" r="2" fill="black"/>
<circle cx="42.2344" cy="714.234" r="2" fill="black"/>
<circle cx="62.2344" cy="714.234" r="2" fill="black"/>
<circle cx="82.2344" cy="714.234" r="2" fill="black"/>
<circle cx="102.234" cy="714.234" r="2" fill="black"/>
<circle cx="2.23438" cy="734.234" r="2" fill="black"/>
<circle cx="22.2344" cy="734.234" r="2" fill="black"/>
<circle cx="42.2344" cy="734.234" r="2" fill="black"/>
<circle cx="62.2344" cy="734.234" r="2" fill="black"/>
<circle cx="82.2344" cy="734.234" r="2" fill="black"/>
<circle cx="102.234" cy="734.234" r="2" fill="black"/>
<circle cx="2.23438" cy="754.234" r="2" fill="black"/>
<circle cx="22.2344" cy="754.234" r="2" fill="black"/>
<circle cx="42.2344" cy="754.234" r="2" fill="black"/>
<circle cx="62.2344" cy="754.234" r="2" fill="black"/>
<circle cx="82.2344" cy="754.234" r="2" fill="black"/>
<circle cx="102.234" cy="754.234" r="2" fill="black"/>
<circle cx="2.23438" cy="774.234" r="2" fill="black"/>
<circle cx="22.2344" cy="774.234" r="2" fill="black"/>
<circle cx="42.2344" cy="774.234" r="2" fill="black"/>
<circle cx="62.2344" cy="774.234" r="2" fill="black"/>
<circle cx="82.2344" cy="774.234" r="2" fill="black"/>
<circle cx="102.234" cy="774.234" r="2" fill="black"/>
<circle cx="122.234" cy="634.234" r="2" fill="black"/>
<circle cx="142.234" cy="634.234" r="2" fill="black"/>
<circle cx="162.234" cy="634.234" r="2" fill="black"/>
<circle cx="182.234" cy="634.234" r="2" fill="black"/>
<circle cx="202.234" cy="634.234" r="2" fill="black"/>
<circle cx="222.234" cy="634.234" r="2" fill="black"/>
<circle cx="242.234" cy="634.234" r="2" fill="black"/>
<circle cx="262.234" cy="634.234" r="2" fill="black"/>
<circle cx="122.234" cy="654.234" r="2" fill="black"/>
<circle cx="142.234" cy="654.234" r="2" fill="black"/>
<circle cx="162.234" cy="654.234" r="2" fill="black"/>
<circle cx="182.234" cy="654.234" r="2" fill="black"/>
<circle cx="202.234" cy="654.234" r="2" fill="black"/>
<circle cx="222.234" cy="654.234" r="2" fill="black"/>
<circle cx="242.234" cy="654.234" r="2" fill="black"/>
<circle cx="262.234" cy="654.234" r="2" fill="black"/>
<circle cx="122.234" cy="674.234" r="2" fill="black"/>
<circle cx="142.234" cy="674.234" r="2" fill="black"/>
<circle cx="162.234" cy="674.234" r="2" fill="black"/>
<circle cx="182.234" cy="674.234" r="2" fill="black"/>
<circle cx="202.234" cy="674.234" r="2" fill="black"/>
<circle cx="222.234" cy="674.234" r="2" fill="black"/>
<circle cx="242.234" cy="674.234" r="2" fill="black"/>
<circle cx="262.234" cy="674.234" r="2" fill="black"/>
<circle cx="122.234" cy="694.234" r="2" fill="black"/>
<circle cx="142.234" cy="694.234" r="2" fill="black"/>
<circle cx="162.234" cy="694.234" r="2" fill="black"/>
<circle cx="182.234" cy="694.234" r="2" fill="black"/>
<circle cx="202.234" cy="694.234" r="2" fill="black"/>
<circle cx="222.234" cy="694.234" r="2" fill="black"/>
<circle cx="242.234" cy="694.234" r="2" fill="black"/>
<circle cx="262.234" cy="694.234" r="2" fill="black"/>
<circle cx="122.234" cy="714.234" r="2" fill="black"/>
<circle cx="142.234" cy="714.234" r="2" fill="black"/>
<circle cx="162.234" cy="714.234" r="2" fill="black"/>
<circle cx="182.234" cy="714.234" r="2" fill="black"/>
<circle cx="202.234" cy="714.234" r="2" fill="black"/>
<circle cx="222.234" cy="714.234" r="2" fill="black"/>
<circle cx="242.234" cy="714.234" r="2" fill="black"/>
<circle cx="262.234" cy="714.234" r="2" fill="black"/>
<circle cx="122.234" cy="734.234" r="2" fill="black"/>
<circle cx="142.234" cy="734.234" r="2" fill="black"/>
<circle cx="162.234" cy="734.234" r="2" fill="black"/>
<circle cx="182.234" cy="734.234" r="2" fill="black"/>
<circle cx="202.234" cy="734.234" r="2" fill="black"/>
<circle cx="222.234" cy="734.234" r="2" fill="black"/>
<circle cx="242.234" cy="734.234" r="2" fill="black"/>
<circle cx="262.234" cy="734.234" r="2" fill="black"/>
<circle cx="122.234" cy="754.234" r="2" fill="black"/>
<circle cx="142.234" cy="754.234" r="2" fill="black"/>
<circle cx="162.234" cy="754.234" r="2" fill="black"/>
<circle cx="182.234" cy="754.234" r="2" fill="black"/>
<circle cx="202.234" cy="754.234" r="2" fill="black"/>
<circle cx="222.234" cy="754.234" r="2" fill="black"/>
<circle cx="242.234" cy="754.234" r="2" fill="black"/>
<circle cx="262.234" cy="754.234" r="2" fill="black"/>
<circle cx="122.234" cy="774.234" r="2" fill="black"/>
<circle cx="142.234" cy="774.234" r="2" fill="black"/>
<circle cx="162.234" cy="774.234" r="2" fill="black"/>
<circle cx="182.234" cy="774.234" r="2" fill="black"/>
<circle cx="202.234" cy="774.234" r="2" fill="black"/>
<circle cx="222.234" cy="774.234" r="2" fill="black"/>
<circle cx="242.234" cy="774.234" r="2" fill="black"/>
<circle cx="262.234" cy="774.234" r="2" fill="black"/>
<circle cx="2.23438" cy="794.234" r="2" fill="black"/>
<circle cx="22.2344" cy="794.234" r="2" fill="black"/>
<circle cx="42.2344" cy="794.234" r="2" fill="black"/>
<circle cx="62.2344" cy="794.234" r="2" fill="black"/>
<circle cx="82.2344" cy="794.234" r="2" fill="black"/>
<circle cx="102.234" cy="794.234" r="2" fill="black"/>
<circle cx="2.23438" cy="814.234" r="2" fill="black"/>
<circle cx="22.2344" cy="814.234" r="2" fill="black"/>
<circle cx="42.2344" cy="814.234" r="2" fill="black"/>
<circle cx="62.2344" cy="814.234" r="2" fill="black"/>
<circle cx="82.2344" cy="814.234" r="2" fill="black"/>
<circle cx="102.234" cy="814.234" r="2" fill="black"/>
<circle cx="2.23438" cy="834.234" r="2" fill="black"/>
<circle cx="22.2344" cy="834.234" r="2" fill="black"/>
<circle cx="42.2344" cy="834.234" r="2" fill="black"/>
<circle cx="62.2344" cy="834.234" r="2" fill="black"/>
<circle cx="82.2344" cy="834.234" r="2" fill="black"/>
<circle cx="102.234" cy="834.234" r="2" fill="black"/>
<circle cx="2.23438" cy="854.234" r="2" fill="black"/>
<circle cx="22.2344" cy="854.234" r="2" fill="black"/>
<circle cx="42.2344" cy="854.234" r="2" fill="black"/>
<circle cx="62.2344" cy="854.234" r="2" fill="black"/>
<circle cx="82.2344" cy="854.234" r="2" fill="black"/>
<circle cx="102.234" cy="854.234" r="2" fill="black"/>
<circle cx="2.23438" cy="874.234" r="2" fill="black"/>
<circle cx="22.2344" cy="874.234" r="2" fill="black"/>
<circle cx="42.2344" cy="874.234" r="2" fill="black"/>
<circle cx="62.2344" cy="874.234" r="2" fill="black"/>
<circle cx="82.2344" cy="874.234" r="2" fill="black"/>
<circle cx="102.234" cy="874.234" r="2" fill="black"/>
<circle cx="2.23438" cy="894.234" r="2" fill="black"/>
<circle cx="22.2344" cy="894.234" r="2" fill="black"/>
<circle cx="42.2344" cy="894.234" r="2" fill="black"/>
<circle cx="62.2344" cy="894.234" r="2" fill="black"/>
<circle cx="82.2344" cy="894.234" r="2" fill="black"/>
<circle cx="102.234" cy="894.234" r="2" fill="black"/>
<circle cx="122.234" cy="794.234" r="2" fill="black"/>
<circle cx="142.234" cy="794.234" r="2" fill="black"/>
<circle cx="162.234" cy="794.234" r="2" fill="black"/>
<circle cx="182.234" cy="794.234" r="2" fill="black"/>
<circle cx="202.234" cy="794.234" r="2" fill="black"/>
<circle cx="222.234" cy="794.234" r="2" fill="black"/>
<circle cx="242.234" cy="794.234" r="2" fill="black"/>
<circle cx="262.234" cy="794.234" r="2" fill="black"/>
<circle cx="122.234" cy="814.234" r="2" fill="black"/>
<circle cx="142.234" cy="814.234" r="2" fill="black"/>
<circle cx="162.234" cy="814.234" r="2" fill="black"/>
<circle cx="182.234" cy="814.234" r="2" fill="black"/>
<circle cx="202.234" cy="814.234" r="2" fill="black"/>
<circle cx="222.234" cy="814.234" r="2" fill="black"/>
<circle cx="242.234" cy="814.234" r="2" fill="black"/>
<circle cx="262.234" cy="814.234" r="2" fill="black"/>
<circle cx="122.234" cy="834.234" r="2" fill="black"/>
<circle cx="142.234" cy="834.234" r="2" fill="black"/>
<circle cx="162.234" cy="834.234" r="2" fill="black"/>
<circle cx="182.234" cy="834.234" r="2" fill="black"/>
<circle cx="202.234" cy="834.234" r="2" fill="black"/>
<circle cx="222.234" cy="834.234" r="2" fill="black"/>
<circle cx="242.234" cy="834.234" r="2" fill="black"/>
<circle cx="262.234" cy="834.234" r="2" fill="black"/>
<circle cx="122.234" cy="854.234" r="2" fill="black"/>
<circle cx="142.234" cy="854.234" r="2" fill="black"/>
<circle cx="162.234" cy="854.234" r="2" fill="black"/>
<circle cx="182.234" cy="854.234" r="2" fill="black"/>
<circle cx="202.234" cy="854.234" r="2" fill="black"/>
<circle cx="222.234" cy="854.234" r="2" fill="black"/>
<circle cx="242.234" cy="854.234" r="2" fill="black"/>
<circle cx="262.234" cy="854.234" r="2" fill="black"/>
<circle cx="122.234" cy="874.234" r="2" fill="black"/>
<circle cx="142.234" cy="874.234" r="2" fill="black"/>
<circle cx="162.234" cy="874.234" r="2" fill="black"/>
<circle cx="182.234" cy="874.234" r="2" fill="black"/>
<circle cx="202.234" cy="874.234" r="2" fill="black"/>
<circle cx="222.234" cy="874.234" r="2" fill="black"/>
<circle cx="242.234" cy="874.234" r="2" fill="black"/>
<circle cx="262.234" cy="874.234" r="2" fill="black"/>
<circle cx="122.234" cy="894.234" r="2" fill="black"/>
<circle cx="142.234" cy="894.234" r="2" fill="black"/>
<circle cx="162.234" cy="894.234" r="2" fill="black"/>
<circle cx="182.234" cy="894.234" r="2" fill="black"/>
<circle cx="202.234" cy="894.234" r="2" fill="black"/>
<circle cx="222.234" cy="894.234" r="2" fill="black"/>
<circle cx="242.234" cy="894.234" r="2" fill="black"/>
<circle cx="262.234" cy="894.234" r="2" fill="black"/>
</g>
</g>
</g>
<defs>
<linearGradient id="paint0_linear_103_71428" x1="721" y1="93.0192" x2="721" y2="810.437" gradientUnits="userSpaceOnUse">
<stop stop-color="#FB493D" stop-opacity="0.57"/>
<stop offset="0.510417" stop-color="#ff4083" stop-opacity="0"/>
</linearGradient>
<linearGradient id="paint1_linear_103_71428" x1="1260.52" y1="167.593" x2="1295" y2="601.5" gradientUnits="userSpaceOnUse">
<stop stop-opacity="0"/>
<stop offset="0.320549"/>
<stop offset="0.442355" stop-color="#ff4083" stop-opacity="0"/>
<stop offset="0.587502" stop-color="#ff4083" stop-opacity="0.42"/>
<stop offset="0.683509"/>
<stop offset="0.932731" stop-opacity="0"/>
</linearGradient>
<linearGradient id="paint2_linear_103_71428" x1="-266.481" y1="739.593" x2="148.519" y2="1225.59" gradientUnits="userSpaceOnUse">
<stop offset="0.197917" stop-opacity="0"/>
<stop offset="0.320549"/>
<stop offset="0.458333" stop-color="#ff4083" stop-opacity="0"/>
<stop offset="0.713542" stop-color="#ff4083" stop-opacity="0.42"/>
<stop offset="0.870732"/>
<stop offset="1" stop-opacity="0.4"/>
</linearGradient>
<clipPath id="clip0_103_71428">
<rect width="1442" height="899" fill="white"/>
</clipPath>
</defs>
</svg>
