<svg width="2071" height="1448" viewBox="0 0 2071 1448" fill="none" xmlns="http://www.w3.org/2000/svg">
<g filter="url(#filter0_f_93_4092)">
<rect x="1000" y="1089" width="672" height="672" transform="rotate(-180 1000 1089)" fill="url(#paint0_linear_93_4092)"/>
</g>
<mask id="mask0_93_4092" style="mask-type:alpha" maskUnits="userSpaceOnUse" x="384" y="208" width="1439" height="1032">
<rect x="384" y="208" width="1439" height="1032" fill="url(#paint1_radial_93_4092)"/>
</mask>
<g mask="url(#mask0_93_4092)">
<rect x="461.5" y="327.5" width="145" height="145" rx="16.5" stroke="#CBCDD0" stroke-opacity="0.3"/>
<rect x="461.5" y="182.5" width="145" height="145" rx="16.5" stroke="#CBCDD0" stroke-opacity="0.3"/>
<rect x="316.5" y="327.5" width="145" height="145" rx="16.5" stroke="#CBCDD0" stroke-opacity="0.3"/>
<rect x="316.5" y="182.5" width="145" height="145" rx="16.5" stroke="#CBCDD0" stroke-opacity="0.3"/>
<rect x="606.5" y="327.5" width="145" height="145" rx="16.5" stroke="#CBCDD0" stroke-opacity="0.3"/>
<rect x="606.5" y="182.5" width="145" height="145" rx="16.5" stroke="#CBCDD0" stroke-opacity="0.3"/>
<rect x="751.5" y="327.5" width="145" height="145" rx="16.5" stroke="#CBCDD0" stroke-opacity="0.3"/>
<rect x="751.5" y="182.5" width="145" height="145" rx="16.5" stroke="#CBCDD0" stroke-opacity="0.3"/>
<rect x="896.5" y="327.5" width="145" height="145" rx="16.5" stroke="#CBCDD0" stroke-opacity="0.3"/>
<rect x="896.5" y="182.5" width="145" height="145" rx="16.5" stroke="#CBCDD0" stroke-opacity="0.3"/>
<rect x="1041.5" y="327.5" width="145" height="145" rx="16.5" stroke="#CBCDD0" stroke-opacity="0.3"/>
<rect x="1041.5" y="182.5" width="145" height="145" rx="16.5" stroke="#CBCDD0" stroke-opacity="0.3"/>
<rect x="1186.5" y="327.5" width="145" height="145" rx="16.5" stroke="#CBCDD0" stroke-opacity="0.3"/>
<rect x="1186.5" y="182.5" width="145" height="145" rx="16.5" stroke="#CBCDD0" stroke-opacity="0.3"/>
<rect x="1331.5" y="327.5" width="145" height="145" rx="16.5" stroke="#CBCDD0" stroke-opacity="0.3"/>
<rect x="1331.5" y="182.5" width="145" height="145" rx="16.5" stroke="#CBCDD0" stroke-opacity="0.3"/>
<rect x="1476.5" y="327.5" width="145" height="145" rx="16.5" stroke="#CBCDD0" stroke-opacity="0.3"/>
<rect x="1476.5" y="182.5" width="145" height="145" rx="16.5" stroke="#CBCDD0" stroke-opacity="0.3"/>
<rect x="1621.5" y="327.5" width="145" height="145" rx="16.5" stroke="#CBCDD0" stroke-opacity="0.3"/>
<rect x="1621.5" y="182.5" width="145" height="145" rx="16.5" stroke="#CBCDD0" stroke-opacity="0.3"/>
<rect x="1766.5" y="327.5" width="145" height="145" rx="16.5" stroke="#CBCDD0" stroke-opacity="0.3"/>
<rect x="1766.5" y="182.5" width="145" height="145" rx="16.5" stroke="#CBCDD0" stroke-opacity="0.3"/>
<rect x="461.5" y="472.5" width="145" height="145" rx="16.5" stroke="#CBCDD0" stroke-opacity="0.3"/>
<rect x="461.5" y="617.5" width="145" height="145" rx="16.5" stroke="#CBCDD0" stroke-opacity="0.3"/>
<rect x="461.5" y="762.5" width="145" height="145" rx="16.5" stroke="#CBCDD0" stroke-opacity="0.3"/>
<rect x="461.5" y="907.5" width="145" height="145" rx="16.5" stroke="#CBCDD0" stroke-opacity="0.3"/>
<rect x="316.5" y="472.5" width="145" height="145" rx="16.5" stroke="#CBCDD0" stroke-opacity="0.3"/>
<rect x="316.5" y="617.5" width="145" height="145" rx="16.5" stroke="#CBCDD0" stroke-opacity="0.3"/>
<rect x="316.5" y="762.5" width="145" height="145" rx="16.5" stroke="#CBCDD0" stroke-opacity="0.3"/>
<rect x="316.5" y="907.5" width="145" height="145" rx="16.5" stroke="#CBCDD0" stroke-opacity="0.3"/>
<rect x="606.5" y="472.5" width="145" height="145" rx="16.5" stroke="#CBCDD0" stroke-opacity="0.3"/>
<rect x="606.5" y="617.5" width="145" height="145" rx="16.5" stroke="#CBCDD0" stroke-opacity="0.3"/>
<rect x="606.5" y="762.5" width="145" height="145" rx="16.5" stroke="#CBCDD0" stroke-opacity="0.3"/>
<rect x="606.5" y="907.5" width="145" height="145" rx="16.5" stroke="#CBCDD0" stroke-opacity="0.3"/>
<rect x="751.5" y="472.5" width="145" height="145" rx="16.5" stroke="#CBCDD0" stroke-opacity="0.3"/>
<rect x="751.5" y="617.5" width="145" height="145" rx="16.5" stroke="#CBCDD0" stroke-opacity="0.3"/>
<rect x="751.5" y="762.5" width="145" height="145" rx="16.5" stroke="#CBCDD0" stroke-opacity="0.3"/>
<rect x="751.5" y="907.5" width="145" height="145" rx="16.5" stroke="#CBCDD0" stroke-opacity="0.3"/>
<rect x="896.5" y="472.5" width="145" height="145" rx="16.5" stroke="#CBCDD0" stroke-opacity="0.3"/>
<rect x="896.5" y="617.5" width="145" height="145" rx="16.5" stroke="#CBCDD0" stroke-opacity="0.3"/>
<rect x="896.5" y="762.5" width="145" height="145" rx="16.5" stroke="#CBCDD0" stroke-opacity="0.3"/>
<rect x="896.5" y="907.5" width="145" height="145" rx="16.5" stroke="#CBCDD0" stroke-opacity="0.3"/>
<rect x="1041.5" y="472.5" width="145" height="145" rx="16.5" stroke="#CBCDD0" stroke-opacity="0.3"/>
<rect x="1041.5" y="617.5" width="145" height="145" rx="16.5" stroke="#CBCDD0" stroke-opacity="0.3"/>
<rect x="1041.5" y="762.5" width="145" height="145" rx="16.5" stroke="#CBCDD0" stroke-opacity="0.3"/>
<rect x="1041.5" y="907.5" width="145" height="145" rx="16.5" stroke="#CBCDD0" stroke-opacity="0.3"/>
<rect x="1186.5" y="472.5" width="145" height="145" rx="16.5" stroke="#CBCDD0" stroke-opacity="0.3"/>
<rect x="1186.5" y="617.5" width="145" height="145" rx="16.5" stroke="#CBCDD0" stroke-opacity="0.3"/>
<rect x="1186.5" y="762.5" width="145" height="145" rx="16.5" stroke="#CBCDD0" stroke-opacity="0.3"/>
<rect x="1186.5" y="907.5" width="145" height="145" rx="16.5" stroke="#CBCDD0" stroke-opacity="0.3"/>
<rect x="1331.5" y="472.5" width="145" height="145" rx="16.5" stroke="#CBCDD0" stroke-opacity="0.3"/>
<rect x="1331.5" y="617.5" width="145" height="145" rx="16.5" stroke="#CBCDD0" stroke-opacity="0.3"/>
<rect x="1331.5" y="762.5" width="145" height="145" rx="16.5" stroke="#CBCDD0" stroke-opacity="0.3"/>
<rect x="1331.5" y="907.5" width="145" height="145" rx="16.5" stroke="#CBCDD0" stroke-opacity="0.3"/>
<rect x="1476.5" y="472.5" width="145" height="145" rx="16.5" stroke="#CBCDD0" stroke-opacity="0.3"/>
<rect x="1476.5" y="617.5" width="145" height="145" rx="16.5" stroke="#CBCDD0" stroke-opacity="0.3"/>
<rect x="1476.5" y="762.5" width="145" height="145" rx="16.5" stroke="#CBCDD0" stroke-opacity="0.3"/>
<rect x="1476.5" y="907.5" width="145" height="145" rx="16.5" stroke="#CBCDD0" stroke-opacity="0.3"/>
<rect x="1621.5" y="472.5" width="145" height="145" rx="16.5" stroke="#CBCDD0" stroke-opacity="0.3"/>
<rect x="1621.5" y="617.5" width="145" height="145" rx="16.5" stroke="#CBCDD0" stroke-opacity="0.3"/>
<rect x="1621.5" y="762.5" width="145" height="145" rx="16.5" stroke="#CBCDD0" stroke-opacity="0.3"/>
<rect x="1621.5" y="907.5" width="145" height="145" rx="16.5" stroke="#CBCDD0" stroke-opacity="0.3"/>
<rect x="1766.5" y="472.5" width="145" height="145" rx="16.5" stroke="#CBCDD0" stroke-opacity="0.3"/>
<rect x="1766.5" y="617.5" width="145" height="145" rx="16.5" stroke="#CBCDD0" stroke-opacity="0.3"/>
<rect x="1766.5" y="762.5" width="145" height="145" rx="16.5" stroke="#CBCDD0" stroke-opacity="0.3"/>
<rect x="1766.5" y="907.5" width="145" height="145" rx="16.5" stroke="#CBCDD0" stroke-opacity="0.3"/>
<mask id="path-69-outside-1_93_4092" maskUnits="userSpaceOnUse" x="1331" y="182" width="581" height="1306" fill="black">
<rect fill="white" x="1331" y="182" width="581" height="1306"/>
<path fill-rule="evenodd" clip-rule="evenodd" d="M1348 1343C1339.16 1343 1332 1350.16 1332 1359V1471C1332 1479.84 1339.16 1487 1348 1487H1460C1468.84 1487 1476 1479.84 1476 1471V1356.96C1476 1356.32 1476.09 1355.69 1476.25 1355.07V1355.07C1477.75 1349.57 1481.66 1345.09 1486.8 1342.81C1488.22 1342.18 1489.79 1342 1491.35 1342H1605C1613.84 1342 1621 1334.84 1621 1326V1211.96C1621 1211.32 1621.09 1210.69 1621.25 1210.07V1210.07C1622.75 1204.57 1626.66 1200.09 1631.8 1197.81C1633.22 1197.18 1634.79 1197 1636.35 1197H1749.39C1753.02 1197 1756.55 1198.24 1759.38 1200.51L1760.91 1201.73C1761.97 1202.57 1762.91 1203.55 1763.72 1204.62L1763.8 1204.73C1765.88 1207.5 1767 1210.87 1767 1214.33V1326.67C1767 1330.13 1765.88 1333.5 1763.8 1336.27L1763.72 1336.38C1762.91 1337.45 1761.97 1338.43 1760.91 1339.27L1760.63 1339.49C1757.8 1341.76 1754.27 1343 1750.64 1343H1638C1629.16 1343 1622 1350.16 1622 1359V1471C1622 1479.84 1629.16 1487 1638 1487H1750C1758.84 1487 1766 1479.84 1766 1471V1356.96C1766 1356.32 1766.09 1355.69 1766.25 1355.07V1355.07C1767.75 1349.57 1771.66 1345.09 1776.8 1342.81C1778.22 1342.18 1779.79 1342 1781.35 1342H1895C1903.84 1342 1911 1334.84 1911 1326V1214C1911 1205.16 1903.84 1198 1895 1198H1779.97C1777.61 1198 1775.22 1197.57 1773.32 1196.18C1769.92 1193.7 1767.39 1190.11 1766.25 1185.93V1185.93C1766.09 1185.31 1766 1184.68 1766 1184.04V1066.96C1766 1066.32 1766.09 1065.69 1766.25 1065.07V1065.07C1767.75 1059.57 1771.66 1055.09 1776.8 1052.81C1778.22 1052.18 1779.79 1052 1781.35 1052H1895C1903.84 1052 1911 1044.84 1911 1036V924C1911 915.163 1903.84 908 1895 908H1781.35C1779.79 908 1778.22 907.816 1776.8 907.187C1771.66 904.914 1767.75 900.432 1766.25 894.928V894.928C1766.09 894.312 1766 893.677 1766 893.039V776.961C1766 776.323 1766.09 775.688 1766.25 775.072V775.072C1767.75 769.568 1771.66 765.086 1776.8 762.813C1778.22 762.184 1779.79 762 1781.35 762H1895C1903.84 762 1911 754.837 1911 746V634C1911 625.163 1903.84 618 1895 618H1781.35C1779.79 618 1778.22 617.816 1776.8 617.187C1771.66 614.914 1767.75 610.432 1766.25 604.928V604.928C1766.09 604.312 1766 603.677 1766 603.039V489C1766 480.163 1758.84 473 1750 473H1636.35C1634.79 473 1633.22 472.816 1631.8 472.187C1626.66 469.914 1622.75 465.432 1621.25 459.928V459.928C1621.09 459.312 1621 458.677 1621 458.039V344C1621 335.163 1613.84 328 1605 328H1491.35C1489.79 328 1488.22 327.816 1486.8 327.187C1481.66 324.914 1477.75 320.432 1476.25 314.928V314.928C1476.09 314.312 1476 313.677 1476 313.039V199C1476 190.163 1468.84 183 1460 183H1348C1339.16 183 1332 190.163 1332 199V311C1332 319.837 1339.16 327 1348 327H1460.64C1464.27 327 1467.8 328.236 1470.63 330.506L1470.91 330.731C1471.97 331.574 1472.91 332.546 1473.72 333.625L1473.8 333.733C1475.88 336.503 1477 339.871 1477 343.333V456C1477 464.837 1484.16 472 1493 472H1605.64C1609.27 472 1612.8 473.236 1615.63 475.506L1615.91 475.731C1616.97 476.574 1617.91 477.546 1618.72 478.625L1618.8 478.733C1620.88 481.503 1622 484.871 1622 488.333V601C1622 609.837 1629.16 617 1638 617H1750.64C1754.27 617 1757.8 618.236 1760.63 620.506L1760.91 620.731C1761.97 621.574 1762.91 622.546 1763.72 623.625L1763.8 623.733C1765.88 626.503 1767 629.871 1767 633.333V746.667C1767 750.129 1765.88 753.497 1763.8 756.267L1763.72 756.375C1762.91 757.454 1761.97 758.426 1760.91 759.269L1760.63 759.494C1757.8 761.764 1754.27 763 1750.64 763H1636.35C1634.79 763 1633.22 762.816 1631.8 762.187C1626.66 759.914 1622.75 755.432 1621.25 749.928V749.928C1621.09 749.312 1621 748.677 1621 748.039V634C1621 625.163 1613.84 618 1605 618H1493C1484.16 618 1477 625.163 1477 634V746C1477 754.837 1484.16 762 1493 762H1605.64C1609.27 762 1612.8 763.236 1615.63 765.506L1615.91 765.731C1616.97 766.574 1617.91 767.546 1618.72 768.625L1618.8 768.733C1620.88 771.503 1622 774.871 1622 778.333V891C1622 899.837 1629.16 907 1638 907H1750.64C1754.27 907 1757.8 908.236 1760.63 910.506L1760.91 910.731C1761.97 911.574 1762.91 912.546 1763.72 913.625L1763.8 913.733C1765.88 916.503 1767 919.871 1767 923.333V1036.67C1767 1040.13 1765.88 1043.5 1763.8 1046.27L1763.72 1046.38C1762.91 1047.45 1761.97 1048.43 1760.91 1049.27L1760.63 1049.49C1757.8 1051.76 1754.27 1053 1750.64 1053H1638C1629.16 1053 1622 1060.16 1622 1069V1181.67C1622 1185.13 1620.88 1188.5 1618.8 1191.27L1618.72 1191.38C1617.91 1192.45 1616.97 1193.43 1615.91 1194.27L1615.63 1194.49C1612.8 1196.76 1609.27 1198 1605.64 1198H1493C1484.16 1198 1477 1205.16 1477 1214V1326.67C1477 1330.13 1475.88 1333.5 1473.8 1336.27L1473.72 1336.38C1472.91 1337.45 1471.97 1338.43 1470.91 1339.27L1470.63 1339.49C1467.8 1341.76 1464.27 1343 1460.64 1343H1348ZM1493 908C1484.16 908 1477 915.163 1477 924V1036C1477 1044.84 1484.16 1052 1493 1052H1605C1613.84 1052 1621 1044.84 1621 1036V924C1621 915.163 1613.84 908 1605 908H1493Z"/>
</mask>
<path d="M1470.63 1339.49L1470.01 1338.71L1470.63 1339.49ZM1473.72 1336.38L1474.52 1336.98L1473.72 1336.38ZM1470.91 1339.27L1471.54 1340.05L1470.91 1339.27ZM1473.8 1336.27L1473 1335.67L1473.8 1336.27ZM1615.63 1194.49L1615.01 1193.71L1615.63 1194.49ZM1618.72 1191.38L1619.52 1191.98L1618.72 1191.38ZM1615.91 1194.27L1616.54 1195.05L1615.91 1194.27ZM1618.8 1191.27L1618 1190.67L1618.8 1191.27ZM1760.63 1049.49L1760.01 1048.71L1760.63 1049.49ZM1763.72 1046.38L1764.52 1046.98L1763.72 1046.38ZM1760.91 1049.27L1761.54 1050.05L1760.91 1049.27ZM1763.8 1046.27L1763 1045.67L1763.8 1046.27ZM1763.8 913.733L1764.6 913.133L1763.8 913.733ZM1760.91 910.731L1761.54 909.95L1760.91 910.731ZM1763.72 913.625L1764.52 913.025L1763.72 913.625ZM1760.63 910.506L1761.26 909.725L1760.63 910.506ZM1618.8 768.733L1619.6 768.133L1618.8 768.733ZM1615.91 765.731L1616.54 764.95L1615.91 765.731ZM1618.72 768.625L1619.52 768.025L1618.72 768.625ZM1615.63 765.506L1616.26 764.725L1615.63 765.506ZM1631.8 762.187L1632.2 761.272L1631.8 762.187ZM1760.63 759.494L1760.01 758.713L1760.63 759.494ZM1763.72 756.375L1764.52 756.975L1763.72 756.375ZM1760.91 759.269L1760.29 758.488L1760.91 759.269ZM1763.8 756.267L1764.6 756.867L1763.8 756.267ZM1763.8 623.733L1764.6 623.133L1763.8 623.733ZM1760.91 620.731L1761.54 619.95L1760.91 620.731ZM1763.72 623.625L1764.52 623.025L1763.72 623.625ZM1760.63 620.506L1761.26 619.725L1760.63 620.506ZM1618.8 478.733L1619.6 478.133L1618.8 478.733ZM1615.91 475.731L1616.54 474.95L1615.91 475.731ZM1618.72 478.625L1619.52 478.025L1618.72 478.625ZM1615.63 475.506L1616.26 474.725L1615.63 475.506ZM1470.91 330.731L1471.54 329.95L1470.91 330.731ZM1473.72 333.625L1472.92 334.225L1473.72 333.625ZM1631.8 472.187L1632.2 471.272L1631.8 472.187ZM1776.8 617.187L1777.2 616.272L1776.8 617.187ZM1776.8 762.813L1777.2 763.728L1776.8 762.813ZM1776.8 907.187L1777.2 906.272L1776.8 907.187ZM1776.8 1052.81L1776.39 1051.9L1776.8 1052.81ZM1776.8 1342.81L1776.39 1341.9L1776.8 1342.81ZM1760.63 1339.49L1760.01 1338.71L1760.63 1339.49ZM1763.72 1336.38L1764.52 1336.98L1763.72 1336.38ZM1760.91 1339.27L1760.29 1338.49L1760.91 1339.27ZM1763.8 1336.27L1763 1335.67L1763.8 1336.27ZM1759.38 1200.51L1760.01 1199.73L1759.38 1200.51ZM1473.8 333.733L1473 334.333L1473.8 333.733ZM1631.8 1197.81L1631.39 1196.9L1631.8 1197.81ZM1470.63 330.506L1470.01 331.287L1470.63 330.506ZM1763.8 1204.73L1763 1205.33L1763.8 1204.73ZM1773.32 1196.18L1773.9 1195.37L1773.32 1196.18ZM1486.8 327.187L1487.2 326.272L1486.8 327.187ZM1486.8 1342.81L1486.39 1341.9L1486.8 1342.81ZM1760.91 1201.73L1761.54 1200.95L1760.91 1201.73ZM1763.72 1204.62L1764.52 1204.02L1763.72 1204.62ZM1333 1471V1359H1331V1471H1333ZM1460 1486H1348V1488H1460V1486ZM1475 1356.96V1471H1477V1356.96H1475ZM1486.39 1341.9C1480.98 1344.29 1476.87 1349.01 1475.29 1354.81L1477.22 1355.34C1478.64 1350.12 1482.33 1345.88 1487.2 1343.73L1486.39 1341.9ZM1605 1341H1491.35V1343H1605V1341ZM1620 1211.96V1326H1622V1211.96H1620ZM1631.39 1196.9C1625.98 1199.29 1621.87 1204.01 1620.29 1209.81L1622.22 1210.34C1623.64 1205.12 1627.33 1200.88 1632.2 1198.73L1631.39 1196.9ZM1749.39 1196H1636.35V1198H1749.39V1196ZM1761.54 1200.95L1760.01 1199.73L1758.76 1201.29L1760.29 1202.51L1761.54 1200.95ZM1764.6 1204.13L1764.52 1204.02L1762.92 1205.22L1763 1205.33L1764.6 1204.13ZM1768 1326.67V1214.33H1766V1326.67H1768ZM1764.52 1336.98L1764.6 1336.87L1763 1335.67L1762.92 1335.78L1764.52 1336.98ZM1761.26 1340.27L1761.54 1340.05L1760.29 1338.49L1760.01 1338.71L1761.26 1340.27ZM1638 1344H1750.64V1342H1638V1344ZM1623 1471V1359H1621V1471H1623ZM1750 1486H1638V1488H1750V1486ZM1765 1356.96V1471H1767V1356.96H1765ZM1776.39 1341.9C1770.98 1344.29 1766.87 1349.01 1765.29 1354.81L1767.22 1355.34C1768.64 1350.12 1772.33 1345.88 1777.2 1343.73L1776.39 1341.9ZM1895 1341H1781.35V1343H1895V1341ZM1910 1214V1326H1912V1214H1910ZM1779.97 1199H1895V1197H1779.97V1199ZM1765.29 1186.19C1766.49 1190.59 1769.15 1194.37 1772.73 1196.98L1773.9 1195.37C1770.69 1193.02 1768.3 1189.62 1767.22 1185.66L1765.29 1186.19ZM1765 1066.96V1184.04H1767V1066.96H1765ZM1776.39 1051.9C1770.98 1054.29 1766.87 1059.01 1765.29 1064.81L1767.22 1065.34C1768.64 1060.12 1772.33 1055.88 1777.2 1053.73L1776.39 1051.9ZM1895 1051H1781.35V1053H1895V1051ZM1910 924V1036H1912V924H1910ZM1781.35 909H1895V907H1781.35V909ZM1765.29 895.191C1766.87 900.987 1770.98 905.708 1776.39 908.102L1777.2 906.272C1772.33 904.12 1768.64 899.876 1767.22 894.664L1765.29 895.191ZM1765 776.961V893.039H1767V776.961H1765ZM1776.39 761.898C1770.98 764.292 1766.87 769.013 1765.29 774.809L1767.22 775.336C1768.64 770.124 1772.33 765.88 1777.2 763.728L1776.39 761.898ZM1895 761H1781.35V763H1895V761ZM1910 634V746H1912V634H1910ZM1781.35 619H1895V617H1781.35V619ZM1765.29 605.191C1766.87 610.987 1770.98 615.708 1776.39 618.102L1777.2 616.272C1772.33 614.12 1768.64 609.876 1767.22 604.664L1765.29 605.191ZM1765 489V603.039H1767V489H1765ZM1636.35 474H1750V472H1636.35V474ZM1620.29 460.191C1621.87 465.987 1625.98 470.708 1631.39 473.102L1632.2 471.272C1627.33 469.12 1623.64 464.876 1622.22 459.664L1620.29 460.191ZM1620 344V458.039H1622V344H1620ZM1491.35 329H1605V327H1491.35V329ZM1487.2 326.272C1482.33 324.12 1478.64 319.876 1477.22 314.664L1475.29 315.191C1476.87 320.987 1480.98 325.708 1486.39 328.102L1487.2 326.272ZM1475 199V313.039H1477V199H1475ZM1348 184H1460V182H1348V184ZM1333 311V199H1331V311H1333ZM1460.64 326H1348V328H1460.64V326ZM1470.01 331.287L1470.29 331.512L1471.54 329.95L1471.26 329.725L1470.01 331.287ZM1472.92 334.225L1473 334.333L1474.6 333.133L1474.52 333.025L1472.92 334.225ZM1478 456V343.333H1476V456H1478ZM1605.64 471H1493V473H1605.64V471ZM1616.54 474.95L1616.26 474.725L1615.01 476.287L1615.29 476.512L1616.54 474.95ZM1619.6 478.133L1619.52 478.025L1617.92 479.225L1618 479.333L1619.6 478.133ZM1623 601V488.333H1621V601H1623ZM1750.64 616H1638V618H1750.64V616ZM1761.54 619.95L1761.26 619.725L1760.01 621.287L1760.29 621.512L1761.54 619.95ZM1764.6 623.133L1764.52 623.025L1762.92 624.225L1763 624.333L1764.6 623.133ZM1768 746.667V633.333H1766V746.667H1768ZM1764.52 756.975L1764.6 756.867L1763 755.667L1762.92 755.775L1764.52 756.975ZM1761.26 760.275L1761.54 760.05L1760.29 758.488L1760.01 758.713L1761.26 760.275ZM1636.35 764H1750.64V762H1636.35V764ZM1620.29 750.191C1621.87 755.987 1625.98 760.708 1631.39 763.102L1632.2 761.272C1627.33 759.12 1623.64 754.876 1622.22 749.664L1620.29 750.191ZM1620 634V748.039H1622V634H1620ZM1493 619H1605V617H1493V619ZM1478 746V634H1476V746H1478ZM1605.64 761H1493V763H1605.64V761ZM1616.54 764.95L1616.26 764.725L1615.01 766.287L1615.29 766.512L1616.54 764.95ZM1619.6 768.133L1619.52 768.025L1617.92 769.225L1618 769.333L1619.6 768.133ZM1623 891V778.333H1621V891H1623ZM1750.64 906H1638V908H1750.64V906ZM1761.54 909.95L1761.26 909.725L1760.01 911.287L1760.29 911.512L1761.54 909.95ZM1764.6 913.133L1764.52 913.025L1762.92 914.225L1763 914.333L1764.6 913.133ZM1768 1036.67V923.333H1766V1036.67H1768ZM1764.52 1046.98L1764.6 1046.87L1763 1045.67L1762.92 1045.78L1764.52 1046.98ZM1761.26 1050.27L1761.54 1050.05L1760.29 1048.49L1760.01 1048.71L1761.26 1050.27ZM1638 1054H1750.64V1052H1638V1054ZM1623 1181.67V1069H1621V1181.67H1623ZM1619.52 1191.98L1619.6 1191.87L1618 1190.67L1617.92 1190.78L1619.52 1191.98ZM1616.26 1195.27L1616.54 1195.05L1615.29 1193.49L1615.01 1193.71L1616.26 1195.27ZM1493 1199H1605.64V1197H1493V1199ZM1478 1326.67V1214H1476V1326.67H1478ZM1474.52 1336.98L1474.6 1336.87L1473 1335.67L1472.92 1335.78L1474.52 1336.98ZM1471.26 1340.27L1471.54 1340.05L1470.29 1338.49L1470.01 1338.71L1471.26 1340.27ZM1348 1344H1460.64V1342H1348V1344ZM1478 1036V924H1476V1036H1478ZM1605 1051H1493V1053H1605V1051ZM1620 924V1036H1622V924H1620ZM1493 909H1605V907H1493V909ZM1622 924C1622 914.611 1614.39 907 1605 907V909C1613.28 909 1620 915.716 1620 924H1622ZM1605 1053C1614.39 1053 1622 1045.39 1622 1036H1620C1620 1044.28 1613.28 1051 1605 1051V1053ZM1478 924C1478 915.716 1484.72 909 1493 909V907C1483.61 907 1476 914.611 1476 924H1478ZM1476 1036C1476 1045.39 1483.61 1053 1493 1053V1051C1484.72 1051 1478 1044.28 1478 1036H1476ZM1470.01 1338.71C1467.35 1340.84 1464.04 1342 1460.64 1342V1344C1464.5 1344 1468.24 1342.69 1471.26 1340.27L1470.01 1338.71ZM1472.92 1335.78C1472.16 1336.79 1471.28 1337.7 1470.29 1338.49L1471.54 1340.05C1472.66 1339.15 1473.66 1338.12 1474.52 1336.98L1472.92 1335.78ZM1476 1326.67C1476 1329.91 1474.95 1333.07 1473 1335.67L1474.6 1336.87C1476.81 1333.92 1478 1330.34 1478 1326.67H1476ZM1493 1197C1483.61 1197 1476 1204.61 1476 1214H1478C1478 1205.72 1484.72 1199 1493 1199V1197ZM1615.01 1193.71C1612.35 1195.84 1609.04 1197 1605.64 1197V1199C1609.5 1199 1613.24 1197.69 1616.26 1195.27L1615.01 1193.71ZM1617.92 1190.78C1617.16 1191.79 1616.28 1192.7 1615.29 1193.49L1616.54 1195.05C1617.66 1194.15 1618.66 1193.12 1619.52 1191.98L1617.92 1190.78ZM1621 1181.67C1621 1184.91 1619.95 1188.07 1618 1190.67L1619.6 1191.87C1621.81 1188.92 1623 1185.34 1623 1181.67H1621ZM1638 1052C1628.61 1052 1621 1059.61 1621 1069H1623C1623 1060.72 1629.72 1054 1638 1054V1052ZM1760.01 1048.71C1757.35 1050.84 1754.04 1052 1750.64 1052V1054C1754.5 1054 1758.24 1052.69 1761.26 1050.27L1760.01 1048.71ZM1762.92 1045.78C1762.16 1046.79 1761.28 1047.7 1760.29 1048.49L1761.54 1050.05C1762.66 1049.15 1763.66 1048.12 1764.52 1046.98L1762.92 1045.78ZM1766 1036.67C1766 1039.91 1764.95 1043.07 1763 1045.67L1764.6 1046.87C1766.81 1043.92 1768 1040.34 1768 1036.67H1766ZM1763 914.333C1764.95 916.93 1766 920.088 1766 923.333H1768C1768 919.655 1766.81 916.076 1764.6 913.133L1763 914.333ZM1760.29 911.512C1761.28 912.302 1762.16 913.213 1762.92 914.225L1764.52 913.025C1763.66 911.879 1762.66 910.845 1761.54 909.95L1760.29 911.512ZM1750.64 908C1754.04 908 1757.35 909.159 1760.01 911.287L1761.26 909.725C1758.24 907.314 1754.5 906 1750.64 906V908ZM1621 891C1621 900.389 1628.61 908 1638 908V906C1629.72 906 1623 899.284 1623 891H1621ZM1618 769.333C1619.95 771.93 1621 775.088 1621 778.333H1623C1623 774.655 1621.81 771.076 1619.6 768.133L1618 769.333ZM1615.29 766.512C1616.28 767.302 1617.16 768.213 1617.92 769.225L1619.52 768.025C1618.66 766.879 1617.66 765.845 1616.54 764.95L1615.29 766.512ZM1605.64 763C1609.04 763 1612.35 764.159 1615.01 766.287L1616.26 764.725C1613.24 762.314 1609.5 761 1605.64 761V763ZM1476 746C1476 755.389 1483.61 763 1493 763V761C1484.72 761 1478 754.284 1478 746H1476ZM1493 617C1483.61 617 1476 624.611 1476 634H1478C1478 625.716 1484.72 619 1493 619V617ZM1622 634C1622 624.611 1614.39 617 1605 617V619C1613.28 619 1620 625.716 1620 634H1622ZM1622.22 749.664C1622.07 749.135 1622 748.588 1622 748.039H1620C1620 748.766 1620.1 749.489 1620.29 750.191L1622.22 749.664ZM1636.35 762C1634.86 762 1633.45 761.823 1632.2 761.272L1631.39 763.102C1633 763.81 1634.72 764 1636.35 764V762ZM1760.01 758.713C1757.35 760.841 1754.04 762 1750.64 762V764C1754.5 764 1758.24 762.686 1761.26 760.275L1760.01 758.713ZM1762.92 755.775C1762.16 756.787 1761.28 757.698 1760.29 758.488L1761.54 760.05C1762.66 759.155 1763.66 758.121 1764.52 756.975L1762.92 755.775ZM1766 746.667C1766 749.912 1764.95 753.07 1763 755.667L1764.6 756.867C1766.81 753.924 1768 750.345 1768 746.667H1766ZM1763 624.333C1764.95 626.93 1766 630.088 1766 633.333H1768C1768 629.655 1766.81 626.076 1764.6 623.133L1763 624.333ZM1760.29 621.512C1761.28 622.302 1762.16 623.213 1762.92 624.225L1764.52 623.025C1763.66 621.879 1762.66 620.845 1761.54 619.95L1760.29 621.512ZM1750.64 618C1754.04 618 1757.35 619.159 1760.01 621.287L1761.26 619.725C1758.24 617.314 1754.5 616 1750.64 616V618ZM1621 601C1621 610.389 1628.61 618 1638 618V616C1629.72 616 1623 609.284 1623 601H1621ZM1618 479.333C1619.95 481.93 1621 485.088 1621 488.333H1623C1623 484.655 1621.81 481.076 1619.6 478.133L1618 479.333ZM1615.29 476.512C1616.28 477.302 1617.16 478.213 1617.92 479.225L1619.52 478.025C1618.66 476.879 1617.66 475.845 1616.54 474.95L1615.29 476.512ZM1605.64 473C1609.04 473 1612.35 474.159 1615.01 476.287L1616.26 474.725C1613.24 472.314 1609.5 471 1605.64 471V473ZM1476 456C1476 465.389 1483.61 473 1493 473V471C1484.72 471 1478 464.284 1478 456H1476ZM1470.29 331.512C1471.28 332.302 1472.16 333.213 1472.92 334.225L1474.52 333.025C1473.66 331.879 1472.66 330.845 1471.54 329.95L1470.29 331.512ZM1477 199C1477 189.611 1469.39 182 1460 182V184C1468.28 184 1475 190.716 1475 199H1477ZM1622.22 459.665C1622.07 459.135 1622 458.588 1622 458.039H1620C1620 458.766 1620.1 459.489 1620.29 460.191L1622.22 459.665ZM1636.35 472C1634.86 472 1633.45 471.823 1632.2 471.272L1631.39 473.102C1633 473.81 1634.72 474 1636.35 474V472ZM1767 489C1767 479.611 1759.39 472 1750 472V474C1758.28 474 1765 480.716 1765 489H1767ZM1767.22 604.664C1767.07 604.135 1767 603.588 1767 603.039H1765C1765 603.766 1765.1 604.489 1765.29 605.191L1767.22 604.664ZM1781.35 617C1779.86 617 1778.45 616.823 1777.2 616.272L1776.39 618.102C1778 618.81 1779.72 619 1781.35 619V617ZM1912 634C1912 624.611 1904.39 617 1895 617V619C1903.28 619 1910 625.716 1910 634H1912ZM1895 763C1904.39 763 1912 755.389 1912 746H1910C1910 754.284 1903.28 761 1895 761V763ZM1777.2 763.728C1778.45 763.177 1779.86 763 1781.35 763V761C1779.72 761 1778 761.19 1776.39 761.898L1777.2 763.728ZM1767 776.961C1767 776.412 1767.07 775.865 1767.22 775.336L1765.29 774.809C1765.1 775.511 1765 776.234 1765 776.961H1767ZM1767.22 894.664C1767.07 894.135 1767 893.588 1767 893.039H1765C1765 893.766 1765.1 894.489 1765.29 895.191L1767.22 894.664ZM1781.35 907C1779.86 907 1778.45 906.823 1777.2 906.272L1776.39 908.102C1778 908.81 1779.72 909 1781.35 909V907ZM1912 924C1912 914.611 1904.39 907 1895 907V909C1903.28 909 1910 915.716 1910 924H1912ZM1895 1053C1904.39 1053 1912 1045.39 1912 1036H1910C1910 1044.28 1903.28 1051 1895 1051V1053ZM1777.2 1053.73C1778.45 1053.18 1779.86 1053 1781.35 1053V1051C1779.72 1051 1778 1051.19 1776.39 1051.9L1777.2 1053.73ZM1767 1066.96C1767 1066.41 1767.07 1065.87 1767.22 1065.34L1765.29 1064.81C1765.1 1065.51 1765 1066.23 1765 1066.96H1767ZM1895 1343C1904.39 1343 1912 1335.39 1912 1326H1910C1910 1334.28 1903.28 1341 1895 1341V1343ZM1777.2 1343.73C1778.45 1343.18 1779.86 1343 1781.35 1343V1341C1779.72 1341 1778 1341.19 1776.39 1341.9L1777.2 1343.73ZM1767 1356.96C1767 1356.41 1767.07 1355.87 1767.22 1355.34L1765.29 1354.81C1765.1 1355.51 1765 1356.23 1765 1356.96H1767ZM1750 1488C1759.39 1488 1767 1480.39 1767 1471H1765C1765 1479.28 1758.28 1486 1750 1486V1488ZM1621 1471C1621 1480.39 1628.61 1488 1638 1488V1486C1629.72 1486 1623 1479.28 1623 1471H1621ZM1638 1342C1628.61 1342 1621 1349.61 1621 1359H1623C1623 1350.72 1629.72 1344 1638 1344V1342ZM1760.01 1338.71C1757.35 1340.84 1754.04 1342 1750.64 1342V1344C1754.5 1344 1758.24 1342.69 1761.26 1340.27L1760.01 1338.71ZM1762.92 1335.78C1762.16 1336.79 1761.28 1337.7 1760.29 1338.49L1761.54 1340.05C1762.66 1339.15 1763.66 1338.12 1764.52 1336.98L1762.92 1335.78ZM1766 1326.67C1766 1329.91 1764.95 1333.07 1763 1335.67L1764.6 1336.87C1766.81 1333.92 1768 1330.34 1768 1326.67H1766ZM1749.39 1198C1752.79 1198 1756.1 1199.16 1758.76 1201.29L1760.01 1199.73C1756.99 1197.31 1753.25 1196 1749.39 1196V1198ZM1473 334.333C1474.95 336.93 1476 340.088 1476 343.333H1478C1478 339.655 1476.81 336.076 1474.6 333.133L1473 334.333ZM1632.2 1198.73C1633.45 1198.18 1634.86 1198 1636.35 1198V1196C1634.72 1196 1633 1196.19 1631.39 1196.9L1632.2 1198.73ZM1460.64 328C1464.04 328 1467.35 329.159 1470.01 331.287L1471.26 329.725C1468.24 327.314 1464.5 326 1460.64 326V328ZM1622 1211.96C1622 1211.41 1622.07 1210.87 1622.22 1210.34L1620.29 1209.81C1620.1 1210.51 1620 1211.23 1620 1211.96H1622ZM1331 311C1331 320.389 1338.61 328 1348 328V326C1339.72 326 1333 319.284 1333 311H1331ZM1605 1343C1614.39 1343 1622 1335.39 1622 1326H1620C1620 1334.28 1613.28 1341 1605 1341V1343ZM1767.22 1185.66C1767.07 1185.13 1767 1184.59 1767 1184.04H1765C1765 1184.77 1765.1 1185.49 1765.29 1186.19L1767.22 1185.66ZM1477.22 314.665C1477.07 314.135 1477 313.588 1477 313.039H1475C1475 313.766 1475.1 314.489 1475.29 315.191L1477.22 314.665ZM1477 1356.96C1477 1356.41 1477.07 1355.87 1477.22 1355.34L1475.29 1354.81C1475.1 1355.51 1475 1356.23 1475 1356.96H1477ZM1460 1488C1469.39 1488 1477 1480.39 1477 1471H1475C1475 1479.28 1468.28 1486 1460 1486V1488ZM1763 1205.33C1764.95 1207.93 1766 1211.09 1766 1214.33H1768C1768 1210.66 1766.81 1207.08 1764.6 1204.13L1763 1205.33ZM1779.97 1197C1777.71 1197 1775.57 1196.58 1773.9 1195.37L1772.73 1196.98C1774.87 1198.55 1777.51 1199 1779.97 1199V1197ZM1491.35 327C1489.86 327 1488.45 326.823 1487.2 326.272L1486.39 328.102C1488 328.81 1489.72 329 1491.35 329V327ZM1333 1359C1333 1350.72 1339.72 1344 1348 1344V1342C1338.61 1342 1331 1349.61 1331 1359H1333ZM1348 182C1338.61 182 1331 189.611 1331 199H1333C1333 190.716 1339.72 184 1348 184V182ZM1487.2 1343.73C1488.45 1343.18 1489.86 1343 1491.35 1343V1341C1489.72 1341 1488 1341.19 1486.39 1341.9L1487.2 1343.73ZM1760.29 1202.51C1761.28 1203.3 1762.16 1204.21 1762.92 1205.22L1764.52 1204.02C1763.66 1202.88 1762.66 1201.85 1761.54 1200.95L1760.29 1202.51ZM1912 1214C1912 1204.61 1904.39 1197 1895 1197V1199C1903.28 1199 1910 1205.72 1910 1214H1912ZM1622 344C1622 334.611 1614.39 327 1605 327V329C1613.28 329 1620 335.716 1620 344H1622ZM1331 1471C1331 1480.39 1338.61 1488 1348 1488V1486C1339.72 1486 1333 1479.28 1333 1471H1331Z" fill="url(#paint2_linear_93_4092)" mask="url(#path-69-outside-1_93_4092)"/>
<mask id="path-71-outside-2_93_4092" maskUnits="userSpaceOnUse" x="1622" y="182" width="581" height="1306" fill="black">
<rect fill="white" x="1622" y="182" width="581" height="1306"/>
<path fill-rule="evenodd" clip-rule="evenodd" d="M1639 1343C1630.16 1343 1623 1350.16 1623 1359V1471C1623 1479.84 1630.16 1487 1639 1487H1751C1759.84 1487 1767 1479.84 1767 1471V1356.96C1767 1356.32 1767.09 1355.69 1767.25 1355.07V1355.07C1768.75 1349.57 1772.66 1345.09 1777.8 1342.81C1779.22 1342.18 1780.79 1342 1782.35 1342H1896C1904.84 1342 1912 1334.84 1912 1326V1211.96C1912 1211.32 1912.09 1210.69 1912.25 1210.07V1210.07C1913.75 1204.57 1917.66 1200.09 1922.8 1197.81C1924.22 1197.18 1925.79 1197 1927.35 1197H2040.39C2044.02 1197 2047.55 1198.24 2050.38 1200.51L2051.91 1201.73C2052.97 1202.57 2053.91 1203.55 2054.72 1204.62L2054.8 1204.73C2056.88 1207.5 2058 1210.87 2058 1214.33V1326.67C2058 1330.13 2056.88 1333.5 2054.8 1336.27L2054.72 1336.38C2053.91 1337.45 2052.97 1338.43 2051.91 1339.27L2051.63 1339.49C2048.8 1341.76 2045.27 1343 2041.64 1343H1929C1920.16 1343 1913 1350.16 1913 1359V1471C1913 1479.84 1920.16 1487 1929 1487H2041C2049.84 1487 2057 1479.84 2057 1471V1356.96C2057 1356.32 2057.09 1355.69 2057.25 1355.07V1355.07C2058.75 1349.57 2062.66 1345.09 2067.8 1342.81C2069.22 1342.18 2070.79 1342 2072.35 1342H2186C2194.84 1342 2202 1334.84 2202 1326V1214C2202 1205.16 2194.84 1198 2186 1198H2070.97C2068.61 1198 2066.22 1197.57 2064.32 1196.18C2060.92 1193.7 2058.39 1190.11 2057.25 1185.93V1185.93C2057.09 1185.31 2057 1184.68 2057 1184.04V1066.96C2057 1066.32 2057.09 1065.69 2057.25 1065.07V1065.07C2058.75 1059.57 2062.66 1055.09 2067.8 1052.81C2069.22 1052.18 2070.79 1052 2072.35 1052H2186C2194.84 1052 2202 1044.84 2202 1036V924C2202 915.163 2194.84 908 2186 908H2072.35C2070.79 908 2069.22 907.816 2067.8 907.187C2062.66 904.914 2058.75 900.432 2057.25 894.928V894.928C2057.09 894.312 2057 893.677 2057 893.039V776.961C2057 776.323 2057.09 775.688 2057.25 775.072V775.072C2058.75 769.568 2062.66 765.086 2067.8 762.813C2069.22 762.184 2070.79 762 2072.35 762H2186C2194.84 762 2202 754.837 2202 746V634C2202 625.163 2194.84 618 2186 618H2072.35C2070.79 618 2069.22 617.816 2067.8 617.187C2062.66 614.914 2058.75 610.432 2057.25 604.928V604.928C2057.09 604.312 2057 603.677 2057 603.039V489C2057 480.163 2049.84 473 2041 473H1927.35C1925.79 473 1924.22 472.816 1922.8 472.187C1917.66 469.914 1913.75 465.432 1912.25 459.928V459.928C1912.09 459.312 1912 458.677 1912 458.039V344C1912 335.163 1904.84 328 1896 328H1782.35C1780.79 328 1779.22 327.816 1777.8 327.187C1772.66 324.914 1768.75 320.432 1767.25 314.928V314.928C1767.09 314.312 1767 313.677 1767 313.039V199C1767 190.163 1759.84 183 1751 183H1639C1630.16 183 1623 190.163 1623 199V311C1623 319.837 1630.16 327 1639 327H1751.64C1755.27 327 1758.8 328.236 1761.63 330.506L1761.91 330.731C1762.97 331.574 1763.91 332.546 1764.72 333.625L1764.8 333.733C1766.88 336.503 1768 339.871 1768 343.333V456C1768 464.837 1775.16 472 1784 472H1896.64C1900.27 472 1903.8 473.236 1906.63 475.506L1906.91 475.731C1907.97 476.574 1908.91 477.546 1909.72 478.625L1909.8 478.733C1911.88 481.503 1913 484.871 1913 488.333V601C1913 609.837 1920.16 617 1929 617H2041.64C2045.27 617 2048.8 618.236 2051.63 620.506L2051.91 620.731C2052.97 621.574 2053.91 622.546 2054.72 623.625L2054.8 623.733C2056.88 626.503 2058 629.871 2058 633.333V746.667C2058 750.129 2056.88 753.497 2054.8 756.267L2054.72 756.375C2053.91 757.454 2052.97 758.426 2051.91 759.269L2051.63 759.494C2048.8 761.764 2045.27 763 2041.64 763H1927.35C1925.79 763 1924.22 762.816 1922.8 762.187C1917.66 759.914 1913.75 755.432 1912.25 749.928V749.928C1912.09 749.312 1912 748.677 1912 748.039V634C1912 625.163 1904.84 618 1896 618H1784C1775.16 618 1768 625.163 1768 634V746C1768 754.837 1775.16 762 1784 762H1896.64C1900.27 762 1903.8 763.236 1906.63 765.506L1906.91 765.731C1907.97 766.574 1908.91 767.546 1909.72 768.625L1909.8 768.733C1911.88 771.503 1913 774.871 1913 778.333V891C1913 899.837 1920.16 907 1929 907H2041.64C2045.27 907 2048.8 908.236 2051.63 910.506L2051.91 910.731C2052.97 911.574 2053.91 912.546 2054.72 913.625L2054.8 913.733C2056.88 916.503 2058 919.871 2058 923.333V1036.67C2058 1040.13 2056.88 1043.5 2054.8 1046.27L2054.72 1046.38C2053.91 1047.45 2052.97 1048.43 2051.91 1049.27L2051.63 1049.49C2048.8 1051.76 2045.27 1053 2041.64 1053H1929C1920.16 1053 1913 1060.16 1913 1069V1181.67C1913 1185.13 1911.88 1188.5 1909.8 1191.27L1909.72 1191.38C1908.91 1192.45 1907.97 1193.43 1906.91 1194.27L1906.63 1194.49C1903.8 1196.76 1900.27 1198 1896.64 1198H1784C1775.16 1198 1768 1205.16 1768 1214V1326.67C1768 1330.13 1766.88 1333.5 1764.8 1336.27L1764.72 1336.38C1763.91 1337.45 1762.97 1338.43 1761.91 1339.27L1761.63 1339.49C1758.8 1341.76 1755.27 1343 1751.64 1343H1639ZM1784 908C1775.16 908 1768 915.163 1768 924V1036C1768 1044.84 1775.16 1052 1784 1052H1896C1904.84 1052 1912 1044.84 1912 1036V924C1912 915.163 1904.84 908 1896 908H1784Z"/>
</mask>
<path d="M1761.63 1339.49L1761.01 1338.71L1761.63 1339.49ZM1764.72 1336.38L1765.52 1336.98L1764.72 1336.38ZM1761.91 1339.27L1762.54 1340.05L1761.91 1339.27ZM1764.8 1336.27L1764 1335.67L1764.8 1336.27ZM1906.63 1194.49L1906.01 1193.71L1906.63 1194.49ZM1909.72 1191.38L1910.52 1191.98L1909.72 1191.38ZM1906.91 1194.27L1907.54 1195.05L1906.91 1194.27ZM1909.8 1191.27L1909 1190.67L1909.8 1191.27ZM2051.63 1049.49L2051.01 1048.71L2051.63 1049.49ZM2054.72 1046.38L2055.52 1046.98L2054.72 1046.38ZM2051.91 1049.27L2052.54 1050.05L2051.91 1049.27ZM2054.8 1046.27L2054 1045.67L2054.8 1046.27ZM2054.8 913.733L2055.6 913.133L2054.8 913.733ZM2051.91 910.731L2052.54 909.95L2051.91 910.731ZM2054.72 913.625L2055.52 913.025L2054.72 913.625ZM2051.63 910.506L2052.26 909.725L2051.63 910.506ZM1909.8 768.733L1910.6 768.133L1909.8 768.733ZM1906.91 765.731L1907.54 764.95L1906.91 765.731ZM1909.72 768.625L1910.52 768.025L1909.72 768.625ZM1906.63 765.506L1907.26 764.725L1906.63 765.506ZM1922.8 762.187L1923.2 761.272L1922.8 762.187ZM2051.63 759.494L2051.01 758.713L2051.63 759.494ZM2054.72 756.375L2055.52 756.975L2054.72 756.375ZM2051.91 759.269L2051.29 758.488L2051.91 759.269ZM2054.8 756.267L2055.6 756.867L2054.8 756.267ZM2054.8 623.733L2055.6 623.133L2054.8 623.733ZM2051.91 620.731L2052.54 619.95L2051.91 620.731ZM2054.72 623.625L2055.52 623.025L2054.72 623.625ZM2051.63 620.506L2052.26 619.725L2051.63 620.506ZM1909.8 478.733L1910.6 478.133L1909.8 478.733ZM1906.91 475.731L1907.54 474.95L1906.91 475.731ZM1909.72 478.625L1910.52 478.025L1909.72 478.625ZM1906.63 475.506L1907.26 474.725L1906.63 475.506ZM1761.91 330.731L1762.54 329.95L1761.91 330.731ZM1764.72 333.625L1763.92 334.225L1764.72 333.625ZM1922.8 472.187L1923.2 471.272L1922.8 472.187ZM2067.8 617.187L2068.2 616.272L2067.8 617.187ZM2067.8 762.813L2068.2 763.728L2067.8 762.813ZM2067.8 907.187L2068.2 906.272L2067.8 907.187ZM2067.8 1052.81L2067.39 1051.9L2067.8 1052.81ZM2067.8 1342.81L2067.39 1341.9L2067.8 1342.81ZM2051.63 1339.49L2051.01 1338.71L2051.63 1339.49ZM2054.72 1336.38L2055.52 1336.98L2054.72 1336.38ZM2051.91 1339.27L2051.29 1338.49L2051.91 1339.27ZM2054.8 1336.27L2054 1335.67L2054.8 1336.27ZM2050.38 1200.51L2051.01 1199.73L2050.38 1200.51ZM1764.8 333.733L1764 334.333L1764.8 333.733ZM1922.8 1197.81L1922.39 1196.9L1922.8 1197.81ZM1761.63 330.506L1761.01 331.287L1761.63 330.506ZM2054.8 1204.73L2054 1205.33L2054.8 1204.73ZM2064.32 1196.18L2064.9 1195.37L2064.32 1196.18ZM1777.8 327.187L1778.2 326.272L1777.8 327.187ZM1777.8 1342.81L1777.39 1341.9L1777.8 1342.81ZM2051.91 1201.73L2052.54 1200.95L2051.91 1201.73ZM2054.72 1204.62L2055.52 1204.02L2054.72 1204.62ZM1624 1471V1359H1622V1471H1624ZM1751 1486H1639V1488H1751V1486ZM1766 1356.96V1471H1768V1356.96H1766ZM1777.39 1341.9C1771.98 1344.29 1767.87 1349.01 1766.29 1354.81L1768.22 1355.34C1769.64 1350.12 1773.33 1345.88 1778.2 1343.73L1777.39 1341.9ZM1896 1341H1782.35V1343H1896V1341ZM1911 1211.96V1326H1913V1211.96H1911ZM1922.39 1196.9C1916.98 1199.29 1912.87 1204.01 1911.29 1209.81L1913.22 1210.34C1914.64 1205.12 1918.33 1200.88 1923.2 1198.73L1922.39 1196.9ZM2040.39 1196H1927.35V1198H2040.39V1196ZM2052.54 1200.95L2051.01 1199.73L2049.76 1201.29L2051.29 1202.51L2052.54 1200.95ZM2055.6 1204.13L2055.52 1204.02L2053.92 1205.22L2054 1205.33L2055.6 1204.13ZM2059 1326.67V1214.33H2057V1326.67H2059ZM2055.52 1336.98L2055.6 1336.87L2054 1335.67L2053.92 1335.78L2055.52 1336.98ZM2052.26 1340.27L2052.54 1340.05L2051.29 1338.49L2051.01 1338.71L2052.26 1340.27ZM1929 1344H2041.64V1342H1929V1344ZM1914 1471V1359H1912V1471H1914ZM2041 1486H1929V1488H2041V1486ZM2056 1356.96V1471H2058V1356.96H2056ZM2067.39 1341.9C2061.98 1344.29 2057.87 1349.01 2056.29 1354.81L2058.22 1355.34C2059.64 1350.12 2063.33 1345.88 2068.2 1343.73L2067.39 1341.9ZM2186 1341H2072.35V1343H2186V1341ZM2201 1214V1326H2203V1214H2201ZM2070.97 1199H2186V1197H2070.97V1199ZM2056.29 1186.19C2057.49 1190.59 2060.15 1194.37 2063.73 1196.98L2064.9 1195.37C2061.69 1193.02 2059.3 1189.62 2058.22 1185.66L2056.29 1186.19ZM2056 1066.96V1184.04H2058V1066.96H2056ZM2067.39 1051.9C2061.98 1054.29 2057.87 1059.01 2056.29 1064.81L2058.22 1065.34C2059.64 1060.12 2063.33 1055.88 2068.2 1053.73L2067.39 1051.9ZM2186 1051H2072.35V1053H2186V1051ZM2201 924V1036H2203V924H2201ZM2072.35 909H2186V907H2072.35V909ZM2056.29 895.191C2057.87 900.987 2061.98 905.708 2067.39 908.102L2068.2 906.272C2063.33 904.12 2059.64 899.876 2058.22 894.664L2056.29 895.191ZM2056 776.961V893.039H2058V776.961H2056ZM2067.39 761.898C2061.98 764.292 2057.87 769.013 2056.29 774.809L2058.22 775.336C2059.64 770.124 2063.33 765.88 2068.2 763.728L2067.39 761.898ZM2186 761H2072.35V763H2186V761ZM2201 634V746H2203V634H2201ZM2072.35 619H2186V617H2072.35V619ZM2056.29 605.191C2057.87 610.987 2061.98 615.708 2067.39 618.102L2068.2 616.272C2063.33 614.12 2059.64 609.876 2058.22 604.664L2056.29 605.191ZM2056 489V603.039H2058V489H2056ZM1927.35 474H2041V472H1927.35V474ZM1911.29 460.191C1912.87 465.987 1916.98 470.708 1922.39 473.102L1923.2 471.272C1918.33 469.12 1914.64 464.876 1913.22 459.664L1911.29 460.191ZM1911 344V458.039H1913V344H1911ZM1782.35 329H1896V327H1782.35V329ZM1778.2 326.272C1773.33 324.12 1769.64 319.876 1768.22 314.664L1766.29 315.191C1767.87 320.987 1771.98 325.708 1777.39 328.102L1778.2 326.272ZM1766 199V313.039H1768V199H1766ZM1639 184H1751V182H1639V184ZM1624 311V199H1622V311H1624ZM1751.64 326H1639V328H1751.64V326ZM1761.01 331.287L1761.29 331.512L1762.54 329.95L1762.26 329.725L1761.01 331.287ZM1763.92 334.225L1764 334.333L1765.6 333.133L1765.52 333.025L1763.92 334.225ZM1769 456V343.333H1767V456H1769ZM1896.64 471H1784V473H1896.64V471ZM1907.54 474.95L1907.26 474.725L1906.01 476.287L1906.29 476.512L1907.54 474.95ZM1910.6 478.133L1910.52 478.025L1908.92 479.225L1909 479.333L1910.6 478.133ZM1914 601V488.333H1912V601H1914ZM2041.64 616H1929V618H2041.64V616ZM2052.54 619.95L2052.26 619.725L2051.01 621.287L2051.29 621.512L2052.54 619.95ZM2055.6 623.133L2055.52 623.025L2053.92 624.225L2054 624.333L2055.6 623.133ZM2059 746.667V633.333H2057V746.667H2059ZM2055.52 756.975L2055.6 756.867L2054 755.667L2053.92 755.775L2055.52 756.975ZM2052.26 760.275L2052.54 760.05L2051.29 758.488L2051.01 758.713L2052.26 760.275ZM1927.35 764H2041.64V762H1927.35V764ZM1911.29 750.191C1912.87 755.987 1916.98 760.708 1922.39 763.102L1923.2 761.272C1918.33 759.12 1914.64 754.876 1913.22 749.664L1911.29 750.191ZM1911 634V748.039H1913V634H1911ZM1784 619H1896V617H1784V619ZM1769 746V634H1767V746H1769ZM1896.64 761H1784V763H1896.64V761ZM1907.54 764.95L1907.26 764.725L1906.01 766.287L1906.29 766.512L1907.54 764.95ZM1910.6 768.133L1910.52 768.025L1908.92 769.225L1909 769.333L1910.6 768.133ZM1914 891V778.333H1912V891H1914ZM2041.64 906H1929V908H2041.64V906ZM2052.54 909.95L2052.26 909.725L2051.01 911.287L2051.29 911.512L2052.54 909.95ZM2055.6 913.133L2055.52 913.025L2053.92 914.225L2054 914.333L2055.6 913.133ZM2059 1036.67V923.333H2057V1036.67H2059ZM2055.52 1046.98L2055.6 1046.87L2054 1045.67L2053.92 1045.78L2055.52 1046.98ZM2052.26 1050.27L2052.54 1050.05L2051.29 1048.49L2051.01 1048.71L2052.26 1050.27ZM1929 1054H2041.64V1052H1929V1054ZM1914 1181.67V1069H1912V1181.67H1914ZM1910.52 1191.98L1910.6 1191.87L1909 1190.67L1908.92 1190.78L1910.52 1191.98ZM1907.26 1195.27L1907.54 1195.05L1906.29 1193.49L1906.01 1193.71L1907.26 1195.27ZM1784 1199H1896.64V1197H1784V1199ZM1769 1326.67V1214H1767V1326.67H1769ZM1765.52 1336.98L1765.6 1336.87L1764 1335.67L1763.92 1335.78L1765.52 1336.98ZM1762.26 1340.27L1762.54 1340.05L1761.29 1338.49L1761.01 1338.71L1762.26 1340.27ZM1639 1344H1751.64V1342H1639V1344ZM1769 1036V924H1767V1036H1769ZM1896 1051H1784V1053H1896V1051ZM1911 924V1036H1913V924H1911ZM1784 909H1896V907H1784V909ZM1913 924C1913 914.611 1905.39 907 1896 907V909C1904.28 909 1911 915.716 1911 924H1913ZM1896 1053C1905.39 1053 1913 1045.39 1913 1036H1911C1911 1044.28 1904.28 1051 1896 1051V1053ZM1769 924C1769 915.716 1775.72 909 1784 909V907C1774.61 907 1767 914.611 1767 924H1769ZM1767 1036C1767 1045.39 1774.61 1053 1784 1053V1051C1775.72 1051 1769 1044.28 1769 1036H1767ZM1761.01 1338.71C1758.35 1340.84 1755.04 1342 1751.64 1342V1344C1755.5 1344 1759.24 1342.69 1762.26 1340.27L1761.01 1338.71ZM1763.92 1335.78C1763.16 1336.79 1762.28 1337.7 1761.29 1338.49L1762.54 1340.05C1763.66 1339.15 1764.66 1338.12 1765.52 1336.98L1763.92 1335.78ZM1767 1326.67C1767 1329.91 1765.95 1333.07 1764 1335.67L1765.6 1336.87C1767.81 1333.92 1769 1330.34 1769 1326.67H1767ZM1784 1197C1774.61 1197 1767 1204.61 1767 1214H1769C1769 1205.72 1775.72 1199 1784 1199V1197ZM1906.01 1193.71C1903.35 1195.84 1900.04 1197 1896.64 1197V1199C1900.5 1199 1904.24 1197.69 1907.26 1195.27L1906.01 1193.71ZM1908.92 1190.78C1908.16 1191.79 1907.28 1192.7 1906.29 1193.49L1907.54 1195.05C1908.66 1194.15 1909.66 1193.12 1910.52 1191.98L1908.92 1190.78ZM1912 1181.67C1912 1184.91 1910.95 1188.07 1909 1190.67L1910.6 1191.87C1912.81 1188.92 1914 1185.34 1914 1181.67H1912ZM1929 1052C1919.61 1052 1912 1059.61 1912 1069H1914C1914 1060.72 1920.72 1054 1929 1054V1052ZM2051.01 1048.71C2048.35 1050.84 2045.04 1052 2041.64 1052V1054C2045.5 1054 2049.24 1052.69 2052.26 1050.27L2051.01 1048.71ZM2053.92 1045.78C2053.16 1046.79 2052.28 1047.7 2051.29 1048.49L2052.54 1050.05C2053.66 1049.15 2054.66 1048.12 2055.52 1046.98L2053.92 1045.78ZM2057 1036.67C2057 1039.91 2055.95 1043.07 2054 1045.67L2055.6 1046.87C2057.81 1043.92 2059 1040.34 2059 1036.67H2057ZM2054 914.333C2055.95 916.93 2057 920.088 2057 923.333H2059C2059 919.655 2057.81 916.076 2055.6 913.133L2054 914.333ZM2051.29 911.512C2052.28 912.302 2053.16 913.213 2053.92 914.225L2055.52 913.025C2054.66 911.879 2053.66 910.845 2052.54 909.95L2051.29 911.512ZM2041.64 908C2045.04 908 2048.35 909.159 2051.01 911.287L2052.26 909.725C2049.24 907.314 2045.5 906 2041.64 906V908ZM1912 891C1912 900.389 1919.61 908 1929 908V906C1920.72 906 1914 899.284 1914 891H1912ZM1909 769.333C1910.95 771.93 1912 775.088 1912 778.333H1914C1914 774.655 1912.81 771.076 1910.6 768.133L1909 769.333ZM1906.29 766.512C1907.28 767.302 1908.16 768.213 1908.92 769.225L1910.52 768.025C1909.66 766.879 1908.66 765.845 1907.54 764.95L1906.29 766.512ZM1896.64 763C1900.04 763 1903.35 764.159 1906.01 766.287L1907.26 764.725C1904.24 762.314 1900.5 761 1896.64 761V763ZM1767 746C1767 755.389 1774.61 763 1784 763V761C1775.72 761 1769 754.284 1769 746H1767ZM1784 617C1774.61 617 1767 624.611 1767 634H1769C1769 625.716 1775.72 619 1784 619V617ZM1913 634C1913 624.611 1905.39 617 1896 617V619C1904.28 619 1911 625.716 1911 634H1913ZM1913.22 749.664C1913.07 749.135 1913 748.588 1913 748.039H1911C1911 748.766 1911.1 749.489 1911.29 750.191L1913.22 749.664ZM1927.35 762C1925.86 762 1924.45 761.823 1923.2 761.272L1922.39 763.102C1924 763.81 1925.72 764 1927.35 764V762ZM2051.01 758.713C2048.35 760.841 2045.04 762 2041.64 762V764C2045.5 764 2049.24 762.686 2052.26 760.275L2051.01 758.713ZM2053.92 755.775C2053.16 756.787 2052.28 757.698 2051.29 758.488L2052.54 760.05C2053.66 759.155 2054.66 758.121 2055.52 756.975L2053.92 755.775ZM2057 746.667C2057 749.912 2055.95 753.07 2054 755.667L2055.6 756.867C2057.81 753.924 2059 750.345 2059 746.667H2057ZM2054 624.333C2055.95 626.93 2057 630.088 2057 633.333H2059C2059 629.655 2057.81 626.076 2055.6 623.133L2054 624.333ZM2051.29 621.512C2052.28 622.302 2053.16 623.213 2053.92 624.225L2055.52 623.025C2054.66 621.879 2053.66 620.845 2052.54 619.95L2051.29 621.512ZM2041.64 618C2045.04 618 2048.35 619.159 2051.01 621.287L2052.26 619.725C2049.24 617.314 2045.5 616 2041.64 616V618ZM1912 601C1912 610.389 1919.61 618 1929 618V616C1920.72 616 1914 609.284 1914 601H1912ZM1909 479.333C1910.95 481.93 1912 485.088 1912 488.333H1914C1914 484.655 1912.81 481.076 1910.6 478.133L1909 479.333ZM1906.29 476.512C1907.28 477.302 1908.16 478.213 1908.92 479.225L1910.52 478.025C1909.66 476.879 1908.66 475.845 1907.54 474.95L1906.29 476.512ZM1896.64 473C1900.04 473 1903.35 474.159 1906.01 476.287L1907.26 474.725C1904.24 472.314 1900.5 471 1896.64 471V473ZM1767 456C1767 465.389 1774.61 473 1784 473V471C1775.72 471 1769 464.284 1769 456H1767ZM1761.29 331.512C1762.28 332.302 1763.16 333.213 1763.92 334.225L1765.52 333.025C1764.66 331.879 1763.66 330.845 1762.54 329.95L1761.29 331.512ZM1768 199C1768 189.611 1760.39 182 1751 182V184C1759.28 184 1766 190.716 1766 199H1768ZM1913.22 459.665C1913.07 459.135 1913 458.588 1913 458.039H1911C1911 458.766 1911.1 459.489 1911.29 460.191L1913.22 459.665ZM1927.35 472C1925.86 472 1924.45 471.823 1923.2 471.272L1922.39 473.102C1924 473.81 1925.72 474 1927.35 474V472ZM2058 489C2058 479.611 2050.39 472 2041 472V474C2049.28 474 2056 480.716 2056 489H2058ZM2058.22 604.664C2058.07 604.135 2058 603.588 2058 603.039H2056C2056 603.766 2056.1 604.489 2056.29 605.191L2058.22 604.664ZM2072.35 617C2070.86 617 2069.45 616.823 2068.2 616.272L2067.39 618.102C2069 618.81 2070.72 619 2072.35 619V617ZM2203 634C2203 624.611 2195.39 617 2186 617V619C2194.28 619 2201 625.716 2201 634H2203ZM2186 763C2195.39 763 2203 755.389 2203 746H2201C2201 754.284 2194.28 761 2186 761V763ZM2068.2 763.728C2069.45 763.177 2070.86 763 2072.35 763V761C2070.72 761 2069 761.19 2067.39 761.898L2068.2 763.728ZM2058 776.961C2058 776.412 2058.07 775.865 2058.22 775.336L2056.29 774.809C2056.1 775.511 2056 776.234 2056 776.961H2058ZM2058.22 894.664C2058.07 894.135 2058 893.588 2058 893.039H2056C2056 893.766 2056.1 894.489 2056.29 895.191L2058.22 894.664ZM2072.35 907C2070.86 907 2069.45 906.823 2068.2 906.272L2067.39 908.102C2069 908.81 2070.72 909 2072.35 909V907ZM2203 924C2203 914.611 2195.39 907 2186 907V909C2194.28 909 2201 915.716 2201 924H2203ZM2186 1053C2195.39 1053 2203 1045.39 2203 1036H2201C2201 1044.28 2194.28 1051 2186 1051V1053ZM2068.2 1053.73C2069.45 1053.18 2070.86 1053 2072.35 1053V1051C2070.72 1051 2069 1051.19 2067.39 1051.9L2068.2 1053.73ZM2058 1066.96C2058 1066.41 2058.07 1065.87 2058.22 1065.34L2056.29 1064.81C2056.1 1065.51 2056 1066.23 2056 1066.96H2058ZM2186 1343C2195.39 1343 2203 1335.39 2203 1326H2201C2201 1334.28 2194.28 1341 2186 1341V1343ZM2068.2 1343.73C2069.45 1343.18 2070.86 1343 2072.35 1343V1341C2070.72 1341 2069 1341.19 2067.39 1341.9L2068.2 1343.73ZM2058 1356.96C2058 1356.41 2058.07 1355.87 2058.22 1355.34L2056.29 1354.81C2056.1 1355.51 2056 1356.23 2056 1356.96H2058ZM2041 1488C2050.39 1488 2058 1480.39 2058 1471H2056C2056 1479.28 2049.28 1486 2041 1486V1488ZM1912 1471C1912 1480.39 1919.61 1488 1929 1488V1486C1920.72 1486 1914 1479.28 1914 1471H1912ZM1929 1342C1919.61 1342 1912 1349.61 1912 1359H1914C1914 1350.72 1920.72 1344 1929 1344V1342ZM2051.01 1338.71C2048.35 1340.84 2045.04 1342 2041.64 1342V1344C2045.5 1344 2049.24 1342.69 2052.26 1340.27L2051.01 1338.71ZM2053.92 1335.78C2053.16 1336.79 2052.28 1337.7 2051.29 1338.49L2052.54 1340.05C2053.66 1339.15 2054.66 1338.12 2055.52 1336.98L2053.92 1335.78ZM2057 1326.67C2057 1329.91 2055.95 1333.07 2054 1335.67L2055.6 1336.87C2057.81 1333.92 2059 1330.34 2059 1326.67H2057ZM2040.39 1198C2043.79 1198 2047.1 1199.16 2049.76 1201.29L2051.01 1199.73C2047.99 1197.31 2044.25 1196 2040.39 1196V1198ZM1764 334.333C1765.95 336.93 1767 340.088 1767 343.333H1769C1769 339.655 1767.81 336.076 1765.6 333.133L1764 334.333ZM1923.2 1198.73C1924.45 1198.18 1925.86 1198 1927.35 1198V1196C1925.72 1196 1924 1196.19 1922.39 1196.9L1923.2 1198.73ZM1751.64 328C1755.04 328 1758.35 329.159 1761.01 331.287L1762.26 329.725C1759.24 327.314 1755.5 326 1751.64 326V328ZM1913 1211.96C1913 1211.41 1913.07 1210.87 1913.22 1210.34L1911.29 1209.81C1911.1 1210.51 1911 1211.23 1911 1211.96H1913ZM1622 311C1622 320.389 1629.61 328 1639 328V326C1630.72 326 1624 319.284 1624 311H1622ZM1896 1343C1905.39 1343 1913 1335.39 1913 1326H1911C1911 1334.28 1904.28 1341 1896 1341V1343ZM2058.22 1185.66C2058.07 1185.13 2058 1184.59 2058 1184.04H2056C2056 1184.77 2056.1 1185.49 2056.29 1186.19L2058.22 1185.66ZM1768.22 314.665C1768.07 314.135 1768 313.588 1768 313.039H1766C1766 313.766 1766.1 314.489 1766.29 315.191L1768.22 314.665ZM1768 1356.96C1768 1356.41 1768.07 1355.87 1768.22 1355.34L1766.29 1354.81C1766.1 1355.51 1766 1356.23 1766 1356.96H1768ZM1751 1488C1760.39 1488 1768 1480.39 1768 1471H1766C1766 1479.28 1759.28 1486 1751 1486V1488ZM2054 1205.33C2055.95 1207.93 2057 1211.09 2057 1214.33H2059C2059 1210.66 2057.81 1207.08 2055.6 1204.13L2054 1205.33ZM2070.97 1197C2068.71 1197 2066.57 1196.58 2064.9 1195.37L2063.73 1196.98C2065.87 1198.55 2068.51 1199 2070.97 1199V1197ZM1782.35 327C1780.86 327 1779.45 326.823 1778.2 326.272L1777.39 328.102C1779 328.81 1780.72 329 1782.35 329V327ZM1624 1359C1624 1350.72 1630.72 1344 1639 1344V1342C1629.61 1342 1622 1349.61 1622 1359H1624ZM1639 182C1629.61 182 1622 189.611 1622 199H1624C1624 190.716 1630.72 184 1639 184V182ZM1778.2 1343.73C1779.45 1343.18 1780.86 1343 1782.35 1343V1341C1780.72 1341 1779 1341.19 1777.39 1341.9L1778.2 1343.73ZM2051.29 1202.51C2052.28 1203.3 2053.16 1204.21 2053.92 1205.22L2055.52 1204.02C2054.66 1202.88 2053.66 1201.85 2052.54 1200.95L2051.29 1202.51ZM2203 1214C2203 1204.61 2195.39 1197 2186 1197V1199C2194.28 1199 2201 1205.72 2201 1214H2203ZM1913 344C1913 334.611 1905.39 327 1896 327V329C1904.28 329 1911 335.716 1911 344H1913ZM1622 1471C1622 1480.39 1629.61 1488 1639 1488V1486C1630.72 1486 1624 1479.28 1624 1471H1622Z" fill="url(#paint3_linear_93_4092)" mask="url(#path-71-outside-2_93_4092)"/>
</g>
<defs>
<filter id="filter0_f_93_4092" x="0.824707" y="89.8247" width="1326.35" height="1326.35" filterUnits="userSpaceOnUse" color-interpolation-filters="sRGB">
<feFlood flood-opacity="0" result="BackgroundImageFix"/>
<feBlend mode="normal" in="SourceGraphic" in2="BackgroundImageFix" result="shape"/>
<feGaussianBlur stdDeviation="163.588" result="effect1_foregroundBlur_93_4092"/>
</filter>
<linearGradient id="paint0_linear_93_4092" x1="1196" y1="1607" x2="1547.89" y2="1687.21" gradientUnits="userSpaceOnUse">
<stop stop-color="#73D4FF"/>
<stop offset="1" stop-color="#7389FD"/>
</linearGradient>
<radialGradient id="paint1_radial_93_4092" cx="0" cy="0" r="1" gradientUnits="userSpaceOnUse" gradientTransform="translate(1426 683.5) rotate(115.046) scale(531.476 696.662)">
<stop offset="0.247746" stop-color="#C4C4C4" stop-opacity="0.8"/>
<stop offset="0.82244" stop-color="#C4C4C4" stop-opacity="0"/>
</radialGradient>
<linearGradient id="paint2_linear_93_4092" x1="1876" y1="1145" x2="1665.09" y2="168.48" gradientUnits="userSpaceOnUse">
<stop offset="0.0133035" stop-color="white"/>
<stop offset="0.172023" stop-color="#FC78FF"/>
<stop offset="0.330078" stop-color="#933EFF"/>
<stop offset="0.480817" stop-color="#5A93FC"/>
<stop offset="0.694961" stop-color="#89C6FF"/>
<stop offset="0.901537" stop-color="white"/>
</linearGradient>
<linearGradient id="paint3_linear_93_4092" x1="2167" y1="1145" x2="1956.09" y2="168.48" gradientUnits="userSpaceOnUse">
<stop offset="0.0133035" stop-color="white"/>
<stop offset="0.172023" stop-color="#FC78FF"/>
<stop offset="0.330078" stop-color="#933EFF"/>
<stop offset="0.480817" stop-color="#5A93FC"/>
<stop offset="0.694961" stop-color="#89C6FF"/>
<stop offset="0.901537" stop-color="white"/>
</linearGradient>
</defs>
</svg>
