<svg width="1440" height="1225" viewBox="0 0 1440 1225" fill="none" xmlns="http://www.w3.org/2000/svg">
<g clip-path="url(#clip0_848_2340)">
<path fill-rule="evenodd" clip-rule="evenodd" d="M88 409C88 422.255 98.7452 433 112 433H328C328.342 433 328.683 432.993 329.021 432.979L329 433C352 433 352 456 352 456L352.021 455.979C352.007 456.317 352 456.658 352 457V673C352 686.255 362.745 697 376 697H592C592.048 697 592.096 697 592.144 697C592.212 696.999 592.28 696.998 592.348 696.997C592.573 696.994 592.798 696.988 593.021 696.979L593 697C616 697 616 720 616 720L616.021 719.979C616.012 720.202 616.006 720.427 616.003 720.652C616.002 720.72 616.001 720.788 616 720.856C616 720.904 616 720.952 616 721V937C616 950.255 626.745 961 640 961H856C856.342 961 856.683 960.993 857.021 960.979L857 961C880 961 880 984 880 984L880.021 983.979C880.007 984.317 880 984.658 880 985V1201C880 1214.25 890.745 1225 904 1225H1120C1133.25 1225 1144 1214.25 1144 1201V985C1144 984.658 1143.99 984.317 1143.98 983.979L1144 984C1144 984 1144 961 1167 961L1166.98 960.979C1167.32 960.993 1167.66 961 1168 961H1384C1397.25 961 1408 950.255 1408 937V721C1408 707.745 1397.25 697 1384 697H1168C1167.66 697 1167.32 697.007 1166.98 697.021L1167 697C1144 697 1144 674 1144 674L1143.98 674.021C1143.98 673.888 1143.99 673.755 1143.99 673.622C1144 673.415 1144 673.208 1144 673V457C1144 456.788 1144 456.577 1143.99 456.367C1143.99 456.237 1143.98 456.108 1143.98 455.979L1144 456C1144 456 1144 433 1167 433L1166.98 432.979C1167.32 432.993 1167.66 433 1168 433H1384C1397.25 433 1408 422.255 1408 409V193C1408 179.745 1397.25 169 1384 169H1168C1167.66 169 1167.32 169.007 1166.98 169.021L1167 169C1144 169 1144 146 1144 146L1143.98 146.021C1143.99 145.683 1144 145.342 1144 145V-71C1144 -84.2549 1133.25 -95 1120 -95H904C890.745 -95 880 -84.2549 880 -71V145C880 145.342 880.007 145.683 880.021 146.021L880 146C880 146 880 169 857 169L857.021 169.021C856.769 169.011 856.516 169.004 856.261 169.001C856.174 169 856.087 169 856 169H640C626.745 169 616 179.745 616 193L616 409C616 409.342 616.007 409.683 616.021 410.021L616 410C616 410 616 433 593 433L593.021 433.021C592.803 433.012 592.583 433.006 592.363 433.003C592.242 433.001 592.121 433 592 433H376C375.658 433 375.317 433.007 374.979 433.021L375 433C352 433 352 410 352 410L351.979 410.021C351.986 409.856 351.991 409.691 351.994 409.525C351.998 409.351 352 409.176 352 409V193C352 179.745 341.255 169 328 169H112C98.7452 169 88 179.745 88 193V409ZM1144.02 938.021C1144.01 937.683 1144 937.342 1144 937V721C1144 720.658 1144.01 720.317 1144.02 719.979L1144 720C1144 720 1144 697 1121 697L1121.02 696.979C1120.68 696.993 1120.34 697 1120 697L904 697C903.658 697 903.317 696.993 902.979 696.979L903 697C880 697 880 720 880 720L879.979 719.979C879.988 720.197 879.994 720.417 879.997 720.637C879.999 720.758 880 720.879 880 721V937C880 937.342 879.993 937.683 879.979 938.021L880 938C880 938 880 961 903 961L902.979 961.021C903.141 961.015 903.305 961.009 903.468 961.006C903.645 961.002 903.822 961 904 961H1120C1120.34 961 1120.68 961.007 1121.02 961.021L1121 961C1144 961 1144 938 1144 938L1144.02 938.021ZM1121 433L1121.02 433.021C1120.78 433.011 1120.55 433.005 1120.31 433.002C1120.2 433.001 1120.1 433 1120 433L904 433C903.658 433 903.317 433.007 902.979 433.021L903 433C880 433 880 410 880 410L879.979 410.021C879.993 409.683 880 409.342 880 409L880 193C880 192.898 879.999 192.796 879.998 192.694C879.995 192.455 879.989 192.216 879.979 191.979L880 192C880 192 880 169 903 169L902.979 168.979C903.317 168.993 903.658 169 904 169H1120C1120.34 169 1120.68 168.993 1121.02 168.979L1121 169C1144 169 1144 192 1144 192L1144.02 191.979C1144.01 192.317 1144 192.658 1144 193V409C1144 409.342 1144.01 409.683 1144.02 410.021L1144 410C1144 410 1144 433 1121 433ZM857.021 432.979C856.683 432.993 856.342 433 856 433H640C639.796 433 639.593 432.997 639.39 432.992C639.253 432.989 639.116 432.984 638.979 432.979L639 433C616 433 616 456 616 456L615.979 455.979C615.993 456.317 616 456.658 616 457V673C616 673.342 615.993 673.683 615.979 674.021L616 674C616 674 616 697 639 697L638.979 697.021C639.317 697.007 639.658 697 640 697H856C856.342 697 856.683 697.007 857.021 697.021L857 697C880 697 880 674 880 674L880.021 674.021C880.016 673.884 880.011 673.747 880.008 673.61C880.006 673.539 880.004 673.469 880.003 673.399L880.002 673.314L880.001 673.254C880 673.17 880 673.085 880 673V457C880 456.658 880.007 456.317 880.021 455.979L880 456C880 456 880 433 857 433L857.021 432.979Z" fill="url(#paint0_radial_848_2340)"/>
<mask id="mask0_848_2340" style="mask-type:alpha" maskUnits="userSpaceOnUse" x="88" y="-95" width="1320" height="1320">
<path fill-rule="evenodd" clip-rule="evenodd" d="M88 409C88 422.255 98.7452 433 112 433H328C328.342 433 328.683 432.993 329.021 432.979L329 433C352 433 352 456 352 456L352.021 455.979C352.007 456.317 352 456.658 352 457V673C352 686.255 362.745 697 376 697H592C592.048 697 592.096 697 592.144 697C592.212 696.999 592.28 696.998 592.348 696.997C592.573 696.994 592.798 696.988 593.021 696.979L593 697C616 697 616 720 616 720L616.021 719.979C616.012 720.202 616.006 720.427 616.003 720.652C616.002 720.72 616.001 720.788 616 720.856C616 720.904 616 720.952 616 721V937C616 950.255 626.745 961 640 961H856C856.342 961 856.683 960.993 857.021 960.979L857 961C880 961 880 984 880 984L880.021 983.979C880.007 984.317 880 984.658 880 985V1201C880 1214.25 890.745 1225 904 1225H1120C1133.25 1225 1144 1214.25 1144 1201V985C1144 984.658 1143.99 984.317 1143.98 983.979L1144 984C1144 984 1144 961 1167 961L1166.98 960.979C1167.32 960.993 1167.66 961 1168 961H1384C1397.25 961 1408 950.255 1408 937V721C1408 707.745 1397.25 697 1384 697H1168C1167.66 697 1167.32 697.007 1166.98 697.021L1167 697C1144 697 1144 674 1144 674L1143.98 674.021C1143.98 673.888 1143.99 673.755 1143.99 673.622C1144 673.415 1144 673.208 1144 673V457C1144 456.788 1144 456.577 1143.99 456.367C1143.99 456.237 1143.98 456.108 1143.98 455.979L1144 456C1144 456 1144 433 1167 433L1166.98 432.979C1167.32 432.993 1167.66 433 1168 433H1384C1397.25 433 1408 422.255 1408 409V193C1408 179.745 1397.25 169 1384 169H1168C1167.66 169 1167.32 169.007 1166.98 169.021L1167 169C1144 169 1144 146 1144 146L1143.98 146.021C1143.99 145.683 1144 145.342 1144 145V-71C1144 -84.2549 1133.25 -95 1120 -95H904C890.745 -95 880 -84.2549 880 -71V145C880 145.342 880.007 145.683 880.021 146.021L880 146C880 146 880 169 857 169L857.021 169.021C856.769 169.011 856.516 169.004 856.261 169.001C856.174 169 856.087 169 856 169H640C626.745 169 616 179.745 616 193L616 409C616 409.342 616.007 409.683 616.021 410.021L616 410C616 410 616 433 593 433L593.021 433.021C592.803 433.012 592.583 433.006 592.363 433.003C592.242 433.001 592.121 433 592 433H376C375.658 433 375.317 433.007 374.979 433.021L375 433C352 433 352 410 352 410L351.979 410.021C351.986 409.856 351.991 409.691 351.994 409.525C351.998 409.351 352 409.176 352 409V193C352 179.745 341.255 169 328 169H112C98.7452 169 88 179.745 88 193V409ZM1144.02 938.021C1144.01 937.683 1144 937.342 1144 937V721C1144 720.658 1144.01 720.317 1144.02 719.979L1144 720C1144 720 1144 697 1121 697L1121.02 696.979C1120.68 696.993 1120.34 697 1120 697L904 697C903.658 697 903.317 696.993 902.979 696.979L903 697C880 697 880 720 880 720L879.979 719.979C879.988 720.197 879.994 720.417 879.997 720.637C879.999 720.758 880 720.879 880 721V937C880 937.342 879.993 937.683 879.979 938.021L880 938C880 938 880 961 903 961L902.979 961.021C903.141 961.015 903.305 961.009 903.468 961.006C903.645 961.002 903.822 961 904 961H1120C1120.34 961 1120.68 961.007 1121.02 961.021L1121 961C1144 961 1144 938 1144 938L1144.02 938.021ZM1121 433L1121.02 433.021C1120.78 433.011 1120.55 433.005 1120.31 433.002C1120.2 433.001 1120.1 433 1120 433L904 433C903.658 433 903.317 433.007 902.979 433.021L903 433C880 433 880 410 880 410L879.979 410.021C879.993 409.683 880 409.342 880 409L880 193C880 192.898 879.999 192.796 879.998 192.694C879.995 192.455 879.989 192.216 879.979 191.979L880 192C880 192 880 169 903 169L902.979 168.979C903.317 168.993 903.658 169 904 169H1120C1120.34 169 1120.68 168.993 1121.02 168.979L1121 169C1144 169 1144 192 1144 192L1144.02 191.979C1144.01 192.317 1144 192.658 1144 193V409C1144 409.342 1144.01 409.683 1144.02 410.021L1144 410C1144 410 1144 433 1121 433ZM857.021 432.979C856.683 432.993 856.342 433 856 433H640C639.796 433 639.593 432.997 639.39 432.992C639.253 432.989 639.116 432.984 638.979 432.979L639 433C616 433 616 456 616 456L615.979 455.979C615.993 456.317 616 456.658 616 457V673C616 673.342 615.993 673.683 615.979 674.021L616 674C616 674 616 697 639 697L638.979 697.021C639.317 697.007 639.658 697 640 697H856C856.342 697 856.683 697.007 857.021 697.021L857 697C880 697 880 674 880 674L880.021 674.021C880.016 673.884 880.011 673.747 880.008 673.61C880.006 673.539 880.004 673.469 880.003 673.399L880.002 673.314L880.001 673.254C880 673.17 880 673.085 880 673V457C880 456.658 880.007 456.317 880.021 455.979L880 456C880 456 880 433 857 433L857.021 432.979Z" fill="url(#paint1_radial_848_2340)"/>
</mask>
<g mask="url(#mask0_848_2340)">
<g filter="url(#filter0_f_848_2340)">
<rect x="1228" y="650.051" width="440.051" height="440.051" transform="rotate(-180 1228 650.051)" fill="url(#paint2_linear_848_2340)"/>
</g>
</g>
</g>
<defs>
<filter id="filter0_f_848_2340" x="460.774" y="-117.175" width="1094.4" height="1094.4" filterUnits="userSpaceOnUse" color-interpolation-filters="sRGB">
<feFlood flood-opacity="0" result="BackgroundImageFix"/>
<feBlend mode="normal" in="SourceGraphic" in2="BackgroundImageFix" result="shape"/>
<feGaussianBlur stdDeviation="163.588" result="effect1_foregroundBlur_848_2340"/>
</filter>
<radialGradient id="paint0_radial_848_2340" cx="0" cy="0" r="1" gradientUnits="userSpaceOnUse" gradientTransform="translate(712 392) rotate(90) scale(882 705.6)">
<stop offset="0.129252" stop-color="#F4F6FA"/>
<stop offset="0.752834" stop-color="#F4F6FA" stop-opacity="0"/>
</radialGradient>
<radialGradient id="paint1_radial_848_2340" cx="0" cy="0" r="1" gradientUnits="userSpaceOnUse" gradientTransform="translate(712 392) rotate(90) scale(882 705.6)">
<stop offset="0.129252" stop-color="#F4F6FA"/>
<stop offset="1" stop-color="#F4F6FA" stop-opacity="0"/>
</radialGradient>
<linearGradient id="paint2_linear_848_2340" x1="1356.35" y1="989.257" x2="1586.78" y2="1041.78" gradientUnits="userSpaceOnUse">
<stop stop-color="#73D4FF"/>
<stop offset="1" stop-color="#7389FD"/>
</linearGradient>
<clipPath id="clip0_848_2340">
<rect width="1440" height="1225" fill="white"/>
</clipPath>
</defs>
</svg>
